<svg xmlns="http://www.w3.org/2000/svg" width="1521.79" height="300.69" viewBox="0 0 402.64 79.56">
  <path class="st0" d="M114.54 61.4c0 .6-.24.83-.7.83-.48 0-.83-.24-.83-.83v-6.57c0-.6.24-.83.7-.83.48 0 .71.24.83.83zm11.16.83c-.35 0-.7-.12-.94-.36l-7.52-5.4v5.05c0 .59-.23.82-.7.82s-.7-.23-.7-.82v-6.58c0-.58.23-.82.58-.82s.7.12.94.47l7.52 5.4v-4.93c0-.59.23-.82.82-.82.47 0 .7.23.7.82v6.58c-.11.35-.35.59-.7.59zm9.16 0h-6.81c-.47 0-.7-.24-.7-.83v-6.57c0-.6.23-.83.7-.83h6.81c2 0 3.06 1.06 3.06 3.3v1.64c0 2.23-1.06 3.29-3.06 3.29zm1.53-4.94c0-1.05-.47-1.64-1.53-1.64h-5.99v4.93h6c1.05 0 1.52-.59 1.52-1.64zm12.45-1.64h-8.34v1.64h6.81c.47 0 .7.24.7.83 0 .58-.23.82-.7.82h-6.81v1.64h8.34c.47 0 .7.24.7.82 0 .6-.23.83-.7.83h-9.04c-.47 0-.7-.24-.7-.83v-6.57c0-.6.23-.83.7-.83h9.04c.47 0 .7.24.7.83 0 .58-.23.82-.7.82zm10.22 3.29h-6.81v2.46c0 .6-.24.83-.7.83-.48 0-.71-.24-.71-.83v-6.57c0-.6.23-.83.7-.83h7.52c1.53 0 2.23.83 2.23 2.47 0 1.65-.7 2.47-2.23 2.47zm0-3.3h-6.81v1.65h6.81c.47 0 .7-.23.7-.82s-.23-.82-.7-.82zm13.16 0h-8.34v1.65h6.81c.47 0 .7.24.7.83 0 .58-.23.82-.7.82h-6.81v1.64h8.34c.47 0 .7.24.7.82 0 .6-.23.83-.7.83h-9.05c-.47 0-.7-.24-.7-.83v-6.57c0-.6.23-.83.7-.83h9.05c.47 0 .7.24.7.83 0 .58-.12.82-.7.82zm11.86 6.59c-.35 0-.7-.12-.94-.36l-7.52-5.4v5.05c0 .59-.23.82-.7.82s-.7-.23-.7-.82v-6.58c0-.58.23-.82.58-.82s.7.12.94.47l7.52 5.4v-4.93c0-.59.23-.82.82-.82.47 0 .7.23.7.82v6.58c-.11.35-.35.59-.7.59zm9.28 0h-6.81c-.47 0-.7-.24-.7-.83v-6.57c0-.6.23-.83.7-.83h6.81c2 0 3.06 1.06 3.06 3.3v1.64c0 2.23-1.06 3.29-3.06 3.29zm1.53-4.94c0-1.05-.47-1.64-1.53-1.64h-5.99v4.93h6c1.05 0 1.52-.59 1.52-1.64zm12.45-1.64H199v1.64h6.81c.47 0 .7.24.7.83 0 .58-.23.82-.7.82H199v1.64h8.34c.47 0 .7.24.7.82 0 .6-.23.83-.7.83h-9.04c-.47 0-.7-.24-.7-.83v-6.57c0-.6.23-.83.7-.83h9.04c.47 0 .7.24.7.83 0 .58-.23.82-.7.82zm11.75 6.58c-.35 0-.7-.12-.94-.36l-7.52-5.4v5.05c0 .59-.24.82-.7.82-.47 0-.71-.23-.71-.82v-6.58c0-.58.24-.82.59-.82s.7.12.94.47l7.52 5.4v-4.93c0-.59.23-.82.82-.82.47 0 .7.23.7.82v6.58c-.11.35-.23.59-.7.59zm11.63-6.58h-3.76v5.87c0 .59-.24.82-.7.82-.48 0-.71-.23-.71-.82v-5.87h-3.76c-.47 0-.7-.24-.7-.82 0-.6.23-.83.7-.83h9.04c.47 0 .71.24.71.83-.12.47-.35.82-.82.82zm14.1 3.29c-.48 0-.71-.24-.71-.82 0-.6.23-.83.82-.83h3.76c1.06 0 1.53.59 1.53 1.65v1.64c0 1.06-.47 1.65-1.53 1.65h-6c-1.99 0-3.05-1.06-3.05-3.3V57.3c0-2.23 1.06-3.29 3.06-3.29h6.81c.47 0 .7.24.7.83 0 .58-.23.82-.7.82h-6.81c-1.06 0-1.53.59-1.53 1.64v1.65c0 1.05.47 1.64 1.53 1.64h5.99v-1.64zm16.32 3.29c-.47 0-.7-.24-.82-.83l-.59-2.46h-6.46l-.47 2.46c-.12.6-.35.83-.82.83s-.7-.24-.7-.83l1.29-6.57c.11-.6.47-.83.94-.83h5.99c.47 0 .82.24.94.83l1.4 6.57c0 .6-.23.83-.7.83zm-2-6.58h-5.28l-.35 1.64h5.99zm13.63 6.58c-.47 0-.7-.24-.7-.83v-5.16L269 58.47a1.3 1.3 0 0 1-.7.35c-.24 0-.47-.12-.7-.35l-3.06-2.23v5.05c0 .58-.24.82-.82.82-.47 0-.7-.24-.7-.82V54.7c0-.24.1-.35.34-.59.24-.23.47-.23.83 0l4.1 2.94 4-2.94c.35-.23.59-.23.82 0 .24.12.36.35.36.7v6.7c0 .47-.24.7-.7.7zm3.4-.83c0 .6-.23.83-.7.83s-.7-.24-.7-.83v-6.57c0-.6.23-.83.7-.83s.7.24.83.83zm11.05.83c-.35 0-.7-.12-.94-.36l-7.52-5.4v5.05c0 .59-.23.82-.7.82s-.7-.23-.7-.82v-6.58c0-.58.23-.82.58-.82s.7.12.94.47l7.52 5.4v-4.93c0-.59.23-.82.82-.82.47 0 .7.23.7.82v6.58c-.11.35-.23.59-.7.59zm7.05-3.3c-.47 0-.7-.23-.7-.81 0-.6.23-.83.82-.83h3.75c1.06 0 1.53.59 1.53 1.65v1.64c0 1.06-.47 1.65-1.53 1.65h-5.99c-2 0-3.05-1.06-3.05-3.3V57.3c0-2.23 1.06-3.29 3.05-3.29h6.82c.47 0 .7.24.7.83 0 .58-.23.82-.7.82h-6.82c-1.05 0-1.52.59-1.52 1.64v1.65c0 1.05.47 1.64 1.52 1.64h6v-1.64zm23.14-3.28h-6.81c-1.06 0-1.53.59-1.53 1.64v1.65c0 1.05.47 1.64 1.53 1.64h6.81c.47 0 .7.24.7.82 0 .6-.23.83-.7.83h-6.81c-2 0-3.06-1.06-3.06-3.3V57.3c0-2.23 1.06-3.29 3.06-3.29h6.81c.47 0 .7.24.7.83.12.58-.11.82-.7.82zm9.4 6.58h-4.47c-2 0-3.05-1.06-3.05-3.3V57.3c0-2.23 1.06-3.29 3.05-3.29h4.47c2 0 3.05 1.06 3.05 3.3v1.64c0 2.23-1.06 3.29-3.05 3.29zm1.52-4.94c0-1.05-.47-1.64-1.52-1.64h-4.47c-1.05 0-1.52.59-1.52 1.64v1.65c0 1.05.47 1.64 1.52 1.64h4.47c1.05 0 1.52-.59 1.52-1.64zm12.46 4.94c-.47 0-.7-.24-.7-.83v-5.16l-3.06 2.23a1.3 1.3 0 0 1-.7.35c-.24 0-.48-.12-.71-.35l-3.06-2.23v5.05c0 .58-.23.82-.82.82-.47 0-.7-.24-.7-.82V54.7c0-.24.11-.35.35-.59.23-.23.47-.23.82 0l4.11 2.94 4-2.94c.35-.23.58-.23.82 0 .23.12.35.35.35.7v6.7c0 .47-.23.7-.7.7zm11.63 0c-.47 0-.7-.24-.7-.83v-5.16l-3.06 2.23a1.3 1.3 0 0 1-.7.35c-.24 0-.48-.12-.71-.35l-3.06-2.23v5.05c0 .58-.23.82-.82.82-.47 0-.7-.24-.7-.82V54.7c0-.24.11-.35.35-.59.23-.23.47-.23.82 0l4.11 2.94 4-2.94c.35-.23.58-.23.82 0 .23.12.35.35.35.7v6.7c0 .47-.23.7-.7.7zm9.4 0h-4.47c-2 0-3.05-1.06-3.05-3.3v-4.1c0-.6.23-.83.7-.83s.7.24.7.83v4.1c0 1.18.47 1.65 1.53 1.65h4.58c1.06 0 1.53-.59 1.53-1.64v-4.11c0-.6.24-.83.7-.83.48 0 .71.24.71.83v4.1c.12 2.24-.82 3.3-2.94 3.3zm14.2 0c-.35 0-.7-.12-.93-.36l-7.52-5.4v5.05c0 .59-.24.82-.7.82-.48 0-.71-.23-.71-.82v-6.58c0-.58.23-.82.59-.82.35 0 .7.12.94.47l7.52 5.4v-4.93c0-.59.23-.82.82-.82.58 0 .7.23.7.82v6.58c-.12.35-.35.59-.7.59zm3.18-.83c0 .6-.24.83-.7.83-.48 0-.71-.24-.71-.83v-6.57c0-.6.23-.83.7-.83s.7.24.83.83zm11.04-5.75h-3.76v5.87c0 .59-.23.82-.7.82s-.7-.23-.7-.82v-5.87h-3.77c-.47 0-.7-.24-.7-.82 0-.6.23-.83.7-.83h9.05c.47 0 .7.24.7.83-.11.47-.35.82-.82.82zm11.98-.12l-4.1 3.06v2.81c0 .6-.24.83-.71.83s-.7-.24-.7-.83V58.6l-4.12-3.06c-.47-.35-.47-.7-.23-1.17.23-.47.58-.6 1.05-.24l4.11 2.94 4-2.94c.47-.23.82-.23 1.06.24.11.47.11.82-.36 1.17z" fill="#7592ab"/>
  <path class="st1" d="M131.57 32.74c-1.76 0-2.58-.94-2.58-2.82s.82-2.82 2.58-2.82h12.92c3.53 0 5.3 1.88 5.3 5.52v5.53c0 3.64-1.77 5.52-5.3 5.52H123.7c-6.93 0-10.34-3.65-10.34-11.05v-5.28c0-7.29 3.41-11.04 10.34-11.04l23.38-.12c1.64 0 2.58.94 2.58 2.7 0 1.76-.82 2.7-2.58 2.7H123.7c-3.4.12-5.17 2-5.17 5.76v5.4c0 3.76 1.77 5.52 5.29 5.52h20.8v-5.52zm57.68-2.82c1.65.12 2.47 2 2.47 5.64 0 5.4-2.47 8.22-7.64 8.22H158c-1.76 0-2.58-.94-2.58-2.7v-22.2c0-1.88.82-2.7 2.58-2.7h25.96c5.29 0 7.87 2.82 7.87 8.34 0 3.52-.93 5.4-2.58 5.4zm-5.17-8.22h-23.5v5.52h23.5c1.76 0 2.59-.94 2.59-2.7 0-1.88-.94-2.7-2.59-2.82zm-.12 11.04H160.6v5.4l23.37-.11c1.77 0 2.59-.82 2.59-2.7.12-1.65-.82-2.59-2.59-2.59zm47.81 11.04c-1.52 0-2.46-.94-2.93-2.82l-2-8.22H204.4l-1.64 8.34c-.35 1.76-1.41 2.7-2.94 2.7-1.52 0-2.23-.94-2.23-2.7L202.05 19c.47-1.88 1.53-2.82 3.3-2.82h20.79c1.76 0 2.7.94 3.05 2.82l4.82 21.96c0 1.88-.7 2.82-2.24 2.82zm-7.04-22.08h-18.21l-1.18 5.52h20.8zm48.75 0h-13.04v19.38c0 1.88-.83 2.7-2.59 2.7-1.76 0-2.58-.94-2.58-2.7V21.7h-13.04c-1.65 0-2.59-.94-2.59-2.82 0-1.76.83-2.7 2.59-2.7h31.25c1.76 0 2.58.94 2.58 2.7 0 1.88-.82 2.82-2.58 2.82zm42.17 0h-28.66v5.52h23.49c1.76 0 2.58.94 2.58 2.82s-.82 2.82-2.58 2.82h-23.5v5.52h28.67c1.76 0 2.58.94 2.58 2.7 0 1.88-.82 2.7-2.58 2.7H284.4c-1.76 0-2.58-.94-2.58-2.7v-22.2c0-1.88.82-2.7 2.58-2.7h31.25c1.76 0 2.58.94 2.58 2.82 0 1.76-.82 2.7-2.58 2.7zm42.05 21.97c-1.76 0-2.58-.94-2.58-2.7V23.92l-10.46 7.52a5.17 5.17 0 0 1-2.58 1.4c-.7 0-1.53-.46-2.59-1.28l-10.45-7.52v17.03c0 1.88-.94 2.7-2.58 2.7-1.77 0-2.59-.94-2.59-2.7v-22.2c0-.7.47-1.4 1.3-2 .82-.7 1.75-.7 2.81-.11l14.1 9.86 13.86-9.86c1.17-.7 2.11-.7 3.05-.12.83.59 1.3 1.29 1.3 2.35v22.2c-.12 1.64-.94 2.47-2.59 2.47zm36.89-10.93H371.2v8.34c0 1.76-.94 2.7-2.58 2.7-1.77 0-2.59-.94-2.59-2.7v-22.2c0-1.88.82-2.7 2.59-2.7h25.96c5.17 0 7.87 2.82 7.87 8.34s-2.7 8.22-7.87 8.22zm0-11.04h-23.5v5.52h23.5c1.76 0 2.58-.94 2.58-2.7 0-1.88-.82-2.7-2.58-2.82z" fill="#fff"/>
  <g>
    <path class="st1" d="M38.65 75.33c-10.77 0-20.41-5.49-24.71-13.94-.7.29-1.48.5-2.18.5-4.16 0-7.54-4.5-7.54-10 0-3.31 1.2-6.4 3.31-8.24a55.95 55.95 0 0 1-3.3-17.67l2.25 1.48 4.43 3.03c0-7.33 3.03-18.17 8.6-23.8l.34 1.34c.5 4.43 1.27 8.73 2.33 12.67C35.2 10.2 55.06 5.28 68.08 4.22h1.06c.35 0 9.71 0 9.71 1.7l-2.18 2.04-2.18 1.97A56.04 56.04 0 0 0 63.58 25.2c6.54-2.19 10.42-3.24 11.61-3.24 0 6.26-3.59 11.75-5.14 14.08-.42.63-.7 1.12-.7 1.2l2.96-.15 2.74-.14c0 1.76-1.9 6.2-4.08 9.5a11.9 11.9 0 0 1 1.27 5.5c0 5.5-3.38 10-7.54 10a6.4 6.4 0 0 1-1.62-.21c-4.15 8.23-13.8 13.58-24.43 13.58z" fill="#7592ab" stroke="#f2f2f2" stroke-width="8.44872" stroke-linecap="round" stroke-linejoin="round" paint-order="stroke fill markers"/>
    <path class="st3" d="M51.47 49.78a2.52 2.52 0 0 1-2.54-2.54c0-1.4 1.13-2.53 2.54-2.53 1.4 0 2.53 1.12 2.53 2.53 0 1.41-1.13 2.54-2.53 2.54zm5.35 5.49a2.52 2.52 0 0 1-2.54-2.54c0-1.4 1.13-2.53 2.54-2.53 1.4 0 2.53 1.13 2.53 2.53 0 1.41-1.2 2.54-2.53 2.54zm-10.84 0a2.52 2.52 0 0 1-2.54-2.54c0-1.4 1.13-2.53 2.54-2.53 1.4 0 2.53 1.13 2.53 2.53 0 1.41-1.13 2.54-2.53 2.54zm5.42 5.42a2.52 2.52 0 0 1-2.54-2.53c0-1.41 1.13-2.54 2.54-2.54 1.4 0 2.53 1.13 2.53 2.54a2.57 2.57 0 0 1-2.53 2.53zM33.44 55.27H20.63c-.78 0-1.48-.56-1.48-1.2v-2.32c0-.7.63-1.2 1.48-1.2h12.81c.78 0 1.48.56 1.48 1.2v2.32c-.07.7-.7 1.2-1.48 1.2zm-5.2 5.42H25.9c-.7 0-1.27-.63-1.27-1.48V46.4c0-.78.57-1.41 1.27-1.41h2.32c.7 0 1.27.63 1.27 1.4v12.82c0 .78-.56 1.48-1.27 1.48z" fill="#ff9600" stroke="#fff" stroke-width="4.22436" stroke-linecap="round" stroke-linejoin="round" paint-order="stroke fill markers"/>
  </g>
</svg>
