<svg xmlns="http://www.w3.org/2000/svg" viewBox="0 0 439.13 139.41" width="100%" height="100%" preserveAspectRatio="none"><defs><style>.cls-1{fill:#edece5;}</style></defs><g id="Layer_2"><g id="Layer_2-2"><path class="cls-1" d="M144.88,3.65V16.42h3.06c4.49,0,5.95-3.19,5.95-6.44s-1.57-6.33-5.95-6.33ZM139.93.88a.34.34,0,0,1,.33-.35h7.42c6.78,0,10,3.79,10,9.47s-3.13,9.53-10,9.53h-5.63a.67.67,0,0,1-.66-.68V3.08a2.11,2.11,0,0,1-1.46-2Z"/><path class="cls-1" d="M161.39.54h4a.66.66,0,0,1,.66.68V18.85a.66.66,0,0,1-.66.68h-2.18a.67.67,0,0,1-.66-.68V3.08a2.12,2.12,0,0,1-1.46-1.95V.88a.34.34,0,0,1,.33-.34"/><path class="cls-1" d="M174.75,5.42c0,4.35,8.77.86,8.77,8.69,0,3.43-2,5.77-6.6,5.77a9.61,9.61,0,0,1-4.52-.81,2.9,2.9,0,0,1-1.8-2.87c0-.61.13-.85.42-.85a2.38,2.38,0,0,1,.75.24,10.21,10.21,0,0,0,4.6,1.18c1.66,0,3.55-.41,3.55-2.31,0-5.05-8.8-1.56-8.8-8.69,0-4.14,2.74-5.74,6.32-5.74,2.21,0,3.8.4,4.69,1.15a2.87,2.87,0,0,1,1,2.44c0,.48-.23.75-.86.48a9.14,9.14,0,0,0-4.38-1c-2.06,0-3.13.83-3.13,2.28"/><path class="cls-1" d="M196.86,0c2.53,0,4.56.54,5.37,1.82a3.73,3.73,0,0,1,.5,2c0,.77-.19.88-.86.56a10.71,10.71,0,0,0-4.81-1.24c-4.14,0-6.16,2.63-6.16,7.06,0,4,1.78,6.6,6.14,6.6a12.59,12.59,0,0,0,5.11-1.21c.6-.24.81-.14.81.54a3.83,3.83,0,0,1-.28,1.48c-.76,1.63-3,2.3-6,2.3-5.43,0-9.44-2.25-9.44-9.66S191,0,196.86,0"/><path class="cls-1" d="M215.76,16.77c4.45,0,6.05-3.11,6.05-6.74s-1.62-6.89-6.05-6.89S209.7,6.33,209.7,10s1.59,6.74,6.06,6.74m0,3.11c-6.71,0-9.71-3.94-9.71-9.82s3.11-10,9.71-10,9.68,4.05,9.68,10-2.95,9.82-9.68,9.82"/><path class="cls-1" d="M244.59.54h-4.83a.34.34,0,0,0-.33.34v.25A2.15,2.15,0,0,0,240.84,3l.11.05L236.61,15,231.73,1a.65.65,0,0,0-.62-.45h-3.59a.34.34,0,0,0-.33.34v.25a2.2,2.2,0,0,0,1.6,2l5.69,16a.65.65,0,0,0,.62.45h2.7a.66.66,0,0,0,.61-.43l6.8-17.64a.67.67,0,0,0-.62-.92"/><path class="cls-1" d="M247.76.88a.34.34,0,0,1,.33-.35h12.62a.34.34,0,0,1,.33.35v.24c0,1.24-1,2.53-3.21,2.53h-5.12V8.1h6.51a.33.33,0,0,1,.33.34v.25c0,1.24-.94,2.53-3.18,2.53h-3.66v5.2h7.51a.66.66,0,0,1,.66.68v1.75a.66.66,0,0,1-.66.68H249.88a.66.66,0,0,1-.66-.68V3.08a2.11,2.11,0,0,1-1.46-2Z"/><path class="cls-1" d="M269.27,3.49v6h2.28c2.29,0,3.68-1,3.68-3s-1.39-3-3.68-3Zm-5-2.61a.35.35,0,0,1,.34-.35h6.92c4.33,0,7.43,1.86,7.43,6,0,2.82-1.28,4.48-3.31,5.31l2.48,4.76c.44.82.81.88,1.19.88s.51,0,.51.37c0,1.05-.82,1.83-2.28,1.83a2.63,2.63,0,0,1-2.68-1.88l-2.58-5.28h-3v6.37a.66.66,0,0,1-.65.68h-2.18a.67.67,0,0,1-.66-.68V3.08a2.13,2.13,0,0,1-1.49-2Z"/><path class="cls-1" d="M203.75,86.08c3.15-7,8.3-11.81,11.16-10.71,3.81,1.49,1.18,10.6-1,14.82-2.87,5.64-7.95,13.52-12,11.46-2.75-1.38-1.29-8.59,1.85-15.57m-106.39,9a18.31,18.31,0,0,1,.52-4.3c2.13-8.91,11.62-22,15.29-19.08,2.69,2.11-4.59,13.45-10.33,18.56-1.54,1.37-3.43,3.07-5.48,4.82M236.57,29.82c-2.32-1.46-5.39-.76-4.92,3.7.8,7.44-4.78,12.47-12.92,16.24-6,2.77-12.8,4.41-24.63,4.74A98.39,98.39,0,0,1,200.27,46c2.53-3.06,1.86-5.51-4.63-3.55-2.89.87-7.35,5.07-12.47,12.35-8.67.3-18.73,1-26,3.25s-5.69,6.84-.91,6.12A122.12,122.12,0,0,1,178,62.77a179.73,179.73,0,0,0-8.93,17.51,158.4,158.4,0,0,0-6.32,16.06c-4.09,5.59-8.88,9.18-11.45,7.19s1.55-9.6,7.53-20.25c3.61-6.44,4.41-10.54-2.93-12-4.89-1-10.57-3.11-12.54-6.19-1-1.62-2-4.1-4.7-4-3.39.17-4.7,1.87-4.59,4.84.28,7.83-8.64,26.17-20.44,34.53-5.19,3.67-9.71,4.12-12.66,2.33,2-1.62,3.89-3.17,5.44-4.43,13.83-11.18,21.11-27.76,11.48-33-8.56-4.64-18.62.72-27.33,15.07-3.66,6-6.37,15.57-4.94,23-3.29,1.68-6.27,2.39-8.36,1.14-4.5-2.72-2.13-11.57-.43-16.39,1.8-5.12,4.7-11.57,7.48-15,3.72-4.59-.35-5.12-2.95-4.61a26.88,26.88,0,0,0-6.11,1.76c-2.09.87-3.7,2.44-5.36,5.27-2.84,4.84-5.2,12.92-6.35,16.28-2.62,6.43-7.75,10.88-9.83,10.12-4.24-1.58,2.89-18.63,6.77-25.63,3.53-6.34,3.52-8.74-3.38-7.58C53.2,69.5,50.69,71,49,74.12c-4.25,8.13-8.28,18.44-9.72,25.95-1.3,6.78.22,13.08,6.7,14.24,7.22,1.28,13.08-5.45,15-7.59s2.44-1.21,2.86.16c.67,2.16,3.28,5.94,7.23,6.75,6.37,1.29,12.52-.31,18-3a11.74,11.74,0,0,0,4.62,2.88c14,4.84,31-8.15,39-20.46,2.34-3.64,5.67-9.92,7.54-13.28s8.09-1.43,5.92,2.58c-2.68,5-6.31,11.12-7.53,14.88-2.23,6.85-3.22,13.44,3.86,17.05,5.77,2.93,12.45-.11,18-4.85.42,4.75,3,7.11,7,8.66,6.93,2.62,15.19-4.24,21.1-11.54a11.25,11.25,0,0,0,8.41,8c11.31,2.76,21.45-9.3,25.66-22.28,3.3-10.21,4.51-21.3-4-24.49S199.05,70.53,192.06,86a6.79,6.79,0,0,0-.77,1.24c-3.55,7.25-12.31,19.47-16.84,17.41-3.6-1.64,2.81-17.65,8.21-29.8,1.28-2.88,3.45-7,6-11.49,8.43.61,16.78,1.33,27.51.48,20.83-1.65,27.36-8.5,29-15.9s-1.71-14.51-8.65-18.12"/><path class="cls-1" d="M95,28.41c1.71,14.73-26.51,23.7-42,26.07-5.7.87-5.72,5.3-1.4,6.43,9.61,2.49,25.63,3.17,38.3-.77,21.92-6.82,31.89-20.18,28.46-33.76C114.65,11.91,93.5,4.2,66.82,15.21c-22.59,9.33-38.91,28.84-51.7,50.88C4.45,84.47-1.66,101.92.39,109.83c2.87,11.09,17.68,23.27,25.83,27.57,3.85,2,6.6-1.1,4.48-6.49-7.31-18.51-6.84-46.33,5.55-72.74C55.15,17.87,93.17,13,95,28.41"/><path class="cls-1" d="M411.15,89.2c-2.83,5.66-7.81,13.56-11.83,11.5-2.7-1.38-1.26-8.63,1.83-15.63s8.15-11.86,11-10.74c3.74,1.49,1.16,10.64-1,14.87m23.76-28c-4.11,5.3-16,4.89-22.88,4.7-6.14-.18-13,3.71-18.48,12-5.1,6.72-7.7,12.08-14.16,18.2-5.17,4.89-11.24,9.35-16.69,7.2-5-2-3.79-11.31-.62-18.28,4.71-10.37,10-13.3,13.13-12.57,2.3.55,2.86,3.62-.1,7.71-1.36,1.88.74,3.88,3.27,3,5.38-1.79,8.4-6.3,8.4-10.09,0-5.66-5.86-7.58-9.44-7.84-11.43-.85-22.19,7.45-27.79,21.66l0,0c-1.71,3.83-11.17,15.6-13.87,14.53-4-1.59,3.85-18.37,8.17-24.88,3.37-5.06,2.9-7.36-3.91-5.87-3.79.84-7.56,2.58-9.17,5.62-3.6,6.8-7.83,15.91-9.52,23.06-1.53,6.46-.08,12.86,6.18,13.75,6.87,1,14.73-5.69,19.48-10.67.81,7.14,5,11.38,9.91,12.69,9.71,2.6,18.35-4.3,26-11.05.95-.85,1.93-1.81,2.92-2.85.2,7.36,4.18,11.19,8.9,12.37,11.11,2.77,21.07-9.34,25.19-22.36,1.95-6.16,3.62-11.86,2.26-16.07,12.65-1.84,16.64-9.6,17-12.89.33-2.72-2.79-2.93-4.2-1.14"/><path class="cls-1" d="M362.48,123.1c-20.3-1.22-35.7-2.84-47.75-12.07a70.93,70.93,0,0,1-23.57-31.31c-.7-1.89-.85-3.93,2.15-4.24,34.59-3.56,60-34.56,53.07-51-6-14.19-29.47-12.82-50.52-.72C280,32.9,267.23,48.61,256.83,70c-9.4,19.3-11.4,34-9.82,44.14,1.7,10.91,12.2,17.88,26.14,23.45,3.81,1.53,6.22-.19,3.8-5.09-7.13-14.43-10.49-49.27,1.92-75.93,14.43-31,42.25-36.54,44.38-24.46,2.76,15.65-22.29,31.27-36,35.5-5.95,1.83-6.24,5.37-5.52,9.79,3.14,19.47,9.28,47.3,32,59,13.75,7,36.41.82,50.85-7.37,3.09-1.76,1.22-5.67-2.1-5.87"/><path class="cls-1" d="M340.08,66.11c7,.12,12.74-4.51,15.46-9.35,3.9-6.9-1.87-8.68-5.41-6a2.46,2.46,0,0,1-2.48.35,4.28,4.28,0,0,0-6.11,4.29c.28,2.56-.76,4.79-2.92,7.13-2,2.15-1.42,3.54,1.46,3.6"/></g></g></svg>