<svg id="Layer_2" xmlns="http://www.w3.org/2000/svg" xmlns:xlink="http://www.w3.org/1999/xlink" viewBox="0 0 82.2 14.71" width="100%" height="100%" preserveAspectRatio="none"><defs><style>.cls-1{fill:none;}.cls-2{clip-path:url(#clippath);}.cls-3{fill:#ff4f21;}</style><clipPath id="clippath"><rect class="cls-1" width="82.2" height="14.71"/></clipPath></defs><g id="Layer_1-2"><g class="cls-2"><path class="cls-3" d="M80.39,9.25s0,0,0,0c0,0,0,0,0,0m-.15,2.34h0s0,0,0,0m.76-2.11s0-.01,0-.02c-.01,0-.02,0,0,.02M52.63,.36s.01,0,.02,.01c0,0-.01-.01-.02-.01M1.62,2.77s.02,.01,0,0c0,0,0,0,0,0m-.59,.1s.04,.02,.05,0c0-.03-.04-.03-.05,0M80.11,7.38s0,0-.01,0c0,0,0,0,.01,0m.43-.09s0,0,0,0h0Zm-.2,.16s.02-.02,.04-.03c-.07-.05-.12,0-.04,.03m-.08-.16s.07-.05,0-.09c-.02,.04-.05,.07,0,.09m.37,.15s.06-.08,.01-.1c-.1,0-.13,.14-.01,.1M75.13,.4s-.03-.05-.05-.02c.01,.03,.02,.04,.05,.02m-.14-.1c-.09-.03-.09,.09-.02,.1,.08,0,.09-.08,.02-.1m1.26,.19s-.06-.05-.08,0c.02,.05,.05,.05,.08,0m-.55,.07c.05,.03,.06,.05,.12,0-.06-.02-.08-.05-.12,0M21.78,14.41c-.2-.09-.27,.22-.03,.14,.05-.03,.15-.14,.03-.14m13.44,.16s.03,.01,.04,.02c-.01-.01-.02-.05-.04-.02m.76-.06s-.02,0-.02,0c.01,.01,.02,.01,.02,0m-.72,.08s0,0,0,0c0,0,0,0,0,0,0,0,0,0,0,0,0,0,0,0,0,0m.03,.04s0-.03-.03-.04l.03,.04Zm-27.99-.35h0s0,0,0,0m-4.07,.26s0,0,0,0c0,.02,.03,0,0,0m-.47,.03s0,.02,0,.01c0,0,0-.01,0-.01m3.59-.16s0,.03,0,0c0,0,0,0,0,0m-2.52,.16s.03,.01,.04,0c0-.03-.03-.03-.04,0m1.03-.13s0,.02,.01,0c0,0,0,0-.01,0m.3-.01s.05,0,.03-.02c-.02,.02-.02,.02-.03,.02m3.37,.07s-.03,.03,0,.04c.03,0,.03-.03,0-.04M79.12,2.23h.01s-.01,0-.01,0m1.83,5.05h0s0,0,0,0m-.21,4.43s.03,0,.03-.02c0,0-.02,.01-.03,.02m-10.24,2.65h0s0,0,0,0c0,0,0,0,0,0m9.6-10.87s0,0,0,0h0Zm.34,.31s0,0-.01,0c0,0,0,0,.01,0m-.01-.01s0,0,0,0c0,0,0,0,0,0h0s0,0,0,0m-.41,.15h0s0,0,0,0m1.97,5.53s0,.01,.01,.01c0,0,0-.02-.01-.01m-1.46-4.27s0,0,0,0c0,0,0,0,0,0m-.05,7.11s.01,0,.01,0c0,0-.01,0-.01,0m.53-6.83s-.03-.01-.03,.01c.02,0,.03,.02,.03-.01m-12.86,9.04s0,0,0,0c0,0,0,0,0,0m3.89-.23s0,0,0,.01c0,0,0,0,0-.01m8.47-3.8s0-.01,0,0h0Zm0,1.62s-.02,.01,0,.02c0,0,.02-.01,0-.02m-2.91,2.01s0,0,0,0c0,0,0,0,0,0m.01-.01s0,0-.01,.01c0,0,0,0,.01-.01m.9-10.86s0-.03-.01-.03c-.02,.02,0,.02,.01,.03m1.28-.33s-.01-.02-.02-.01c0,.02,0,.02,.02,.01m-1.01,.58s0,0,0,0h0Zm-7.95,10.98s0,0,0,0c0,.03,.04,0,0,0m8.86-11.7s-.02-.02-.03,0c0,.02,.02,.02,.03,0m-1.25,.17s.01,.02,.03,0c0-.02-.01-.02-.03,0m-7.91,11.42s0,0,0,0c0,0-.01,0-.02-.01,0,0,0,0,.01,.01m-.02-.01s0,0,0,0c0,0,0,0,0,0m-2.56,.15s.02,0,.03,.01c-.01,0-.02-.01-.03-.01m10.99-10.81s0,.03,0,.05c0-.02,.04-.05,0-.05m1.61,1s.03-.03,0-.04c-.02,0-.03,.03,0,.04m-3.06,9.26s-.01,.01-.02,.02c.01,0,.04,0,.02-.02m-.02,.02s0,0,0,0c0,0,0,0,0,0m-6.5,.57s.01,.02,.02,.02c0-.01,0-.04-.02-.02m.03,.03h0s0,0,0,0c0,0,0,0,0,0h0s0,0,0,0m9.44-11.14s.04,0,0,0c0,0,0,0,0,0m-.86-1.27s0-.02-.01-.04c-.02,.02,0,.02,.01,.04m-7.41,12.11s0,0,.02,.01c0-.01,0,0-.02-.01m7.41-11.02s.01,0,.01,.01c0-.02,0-.03-.01-.01m-1.03-.43s.04,.02,.04,0c0-.03-.04-.03-.04,0m.76,11.39s-.05,0-.01,.02c0,0,.01-.01,.01-.02m-11.35,.3s0,0,0,0c0,0,0,0,0,0h0Zm-.03-.03s0,.02,.03,.03c0-.01-.01-.02-.03-.03m8.92-.1s.02,0,.02,0c-.01,0-.02,0-.02,0m-.61-.03s0,0,0,0c.03,0,0-.04,0,0m-5.04-.03h0s0,0,0,0m-.03,0s0,.03,0,.04c.04,0,.05-.06,0-.04m-1.64,.06s.02,.02,.03,0c0-.01-.02-.02-.03,0m5.49,.06s.02,.01,.03,0c-.01-.01-.03-.01-.03,0m5.62-3.98s.02,.02,.04,0c-.02-.01-.04-.02-.04,0m-.75-7.41s.02-.04,0-.05c-.03,.02-.01,.03,0,.05m-11.97,11.29s-.03,.03-.02,.07c.03-.03,.05-.05,.02-.07m4.04,.26s.06,.06,.08,.01c0-.05-.06-.06-.08-.01m7.99-.36s.07,0,.02-.04c-.01,.02-.03,.03-.02,.04m1.3-6.81s.04,.04,.07,0c-.03-.04-.05-.05-.07,0m-2.85-5.07s0-.06-.03-.02c.01,.01,.02,.03,.03,.02m.27,1.08s0-.04,0-.06c-.04-.04-.07,.14,0,.06m-3.38,10.94s-.03,.06,.02,.1c.02-.06,.04-.07-.02-.1m3.38-.25c.03,.06,.1-.06,.05-.09-.02,.04-.04,.06-.05,.09m1.76-11.02c-.05,.02-.03,.05,0,.09,.05-.05,.06-.07,0-.09m1.27,6.79s0,0,0,0c0,0,0,0,0,0m-.03-.03c-.06-.06-.09,0-.07,.07,.04,0,.14-.02,.07-.07m-3.37-6.84s.03,.03,.05,.06c.08-.09,.02-.16-.05-.06m1.8,1.27c0,.07,.08,.05,.1-.01-.01-.05-.07-.03-.1,.01m.09-1.41c.06-.06-.05-.19-.1-.07-.01,.06,.05,.07,.1,.07m.01,0s0,0,0,0h0Zm0-.11h0s0,0,0,0h0Zm-1.56,11.64c-.26,0-.05,.12,.05,0-.02,0-.04,0-.05,0m-6.7-.2s-.14-.03-.12,.04c.04-.01,.14,0,.12-.04m8.49-10.22c.11,0,.14-.08,.05-.11-.06-.01-.12,.08-.05,.11m1.45,5.46c.07-.04,.02-.14-.07-.15-.08,.04,0,.14,.07,.15m-5.2,4.88c-.1-.01-.06,.14,.03,.12,.09-.02,.07-.15-.03-.12m-6.34-.07c-.08,.05-.13,.13-.01,.15,.11,0,.06-.09,.01-.15m9.53-9.84c-.11-.02-.11,.14,.01,.11,.11,.02,.11-.13-.01-.11m-1.45-1.75c-.07,.02-.06,.15,0,.17,.1,.01,.09-.19,0-.17m2.02,1.1c0-.05,.04-.21-.07-.17-.11,.05-.06,.21,.07,.17m-.12,.36c.23-.07-.14-.2-.16-.05,0,.08,.1,.05,.16,.05m-3.98,10.28c-.09,.01-.03,.09,.03,.12,.09,.07,.37-.27-.03-.12m3.44-.2c.04-.09-.08-.07-.13-.07-.16,.12,.04,.22,.13,.07m2.15-4.3c-.09-.06-.17-.14-.22-.01,0,.14,.29,.13,.22,.01m-8.75,4.33c-.19-.02-.15,.17,.02,.13,.12-.01,.11-.15-.02-.13m6.65-10.59c0,.15,.23,.05,.24-.02-.01-.09-.25-.12-.24,.02m.01,10.75c-.03,.06-.25,.06-.17,.12,.23,.07,.46-.12,.17-.12m-7.24-.19c-.13,.01-.1,.2,.01,.21,.11,0,.12-.22-.01-.21m5.56-.13c-.13-.1-.2,.11-.16,.2,.1-.02,.21-.1,.16-.2m1.03,.16c-.01-.11-.3-.12-.23,0,.15,.03,.14,.19,.26,.23,.08-.05-.06-.16-.02-.24m1.01-11.18c.04,.12,.21-.05,.3-.04,.1-.06-.35-.4-.3,.04m0-.17s0,0,0,0h0ZM72.74,.21l.05,.02s-.02-.02-.05-.02m-6.42,0h-.1s.06,.03,.1,0M14.67,14.68h.05s-.03-.02-.05,0m.94,0h.07s-.05-.03-.07,0M77.06,.21h-.05s.03,.03,.05,0m1.06,14.47h.05s-.03-.02-.05,0m-62.3,0h.05s-.03-.04-.05,0m-13.31,0h.07s-.05-.03-.07,0m28.81,0h.15c-.04-.06-.09-.06-.15,0M74.97,.28c.06,0,.06-.03,.07-.07-.08-.02-.19,.03-.07,.07m4.03,14.4h.15c-.07-.07-.09-.07-.15,0m.34-.06c-.15,.03-.03,.09,.07,.06-.02-.02-.04-.06-.07-.06m-43.35-.01c-.15,.05,0,.1,.09,.08,0-.05-.03-.08-.09-.08m-.31-.03c-.12-.01-.01,.14,.07,.1,0-.04-.01-.09-.07-.1m37.78-.03c-.09,0-.09,.07-.09,.13,.12,.03,.17-.05,.09-.13m8.69-4.87c-.07-.06-.04,.11-.05,.15,.05,.21,.16-.05,.05-.15m-14.71,4.91c-.22,.07-.02,.12,.11,.09-.01-.09-.03-.1-.11-.09m3.38-.02c-.09-.03-.12,.06-.18,.11,.12,.01,.36,0,.18-.11m-35.81,.01c-.08-.08-.12,.05-.15,.1,.16,0,.43,.01,.15-.1m37.32-.01c-.07-.02-.15-.02-.22,0-.19,.16,.39,.19,.22,0m-1.2-.12c-.09,.05,.02,.12-.14,.13-.01,.29,.45,0,.14-.13m4.86,.09c-.05-.01-.06-.01-.09,.01,.04,.02,.05,.02,.09-.01m.17,.09c-.82,.35-.13-.72-.15-.24-.14,.11,.27,.14,.15,.24m4.61-2.93s0,0,0,0h0Zm-3.19,2.42s0,0,0,0h0ZM1.97,3.42h0s0,0,0,0h0ZM.59,2.26h0s0,0,0,0h0ZM77.45,13.98s0,0,0,0h0Zm3.07-8.8s0,0,0,0h0Zm-12.39,9.32s0,0,0,0h0Zm13.39-5.05s0,0,0,0h0Zm-.14-.15s-.01,0-.02,0c0,.01,.01,0,.02,0m-.27,.02c-.13-.01-.3,.1-.1,.15,.1,.49,.18,.1,.1-.15m-.11-.2s.01,.02,.02,0c0-.01-.02-.02-.02,0m.08,.07h0s0,0,0,0m-.25-.07c-.06-.14-.21-.16-.2,.02,.02,.06,.17,.02,.2-.02m-.11,.26c-.21,.03-.37,.27-.12,.37-.26-.31,.22-.16,.12-.37m-.09,.71c-.03-.08-.09,0-.04,.05,.02-.03,.04-.04,.04-.05m-.11-.09s0,0,0,0h0Zm-.13-.75c.05-.07,.18-.11,.16-.2-.09,.05-.1,.16-.23,.11-.09,.25,.18,.25,.07,.09m0,.82s0,0,.01,0c0,0,0,0-.01,0,0,0,0,0,0,0m-.03,.67c-.06-.07-.04-.09,.02-.13,.04-.08-.26-.17-.16-.04,.09,.13,.06,.29,.14,.43,.17,.1,.05-.22,0-.26m.08,.55s.04-.01,.05,0c.27,.07,0-.2-.05,0m.11,.35c-.1-.2-.1,.02-.17,0-.25-.04,.29-.23-.33-.08,.15,.08,.32,.19,.49,.07m-.36,1.1s-.01-.1-.04-.14c-.05,.04-.06,.16,.04,.14m-.04-.25h0s0,0,0,0h0Zm-.09-.39c-.06-.08-.03-.2,.1-.14-.22-.24-.15,.27-.19,.38,.07-.04,.19-.13,.09-.23m-.06-.45s-.02,.02,0,.03c0-.01,.02-.03,0-.03m.11-.5h0s0,0,0,0m-.1-.26c.27-.12,.12-.27-.11-.22-.01-.11,.13-.2,.06-.31,0,.15-.17,.23-.19,.34,.18,.04-.02,.25,.24,.19m-.07,.17s-.01-.02-.02,0c0,.02,0,.02,.02,0m-.02,.77h0s0,0,0,0m0-.38s-.03-.02-.05,0c.02,.01,.02,.03,.05,0m-.13,.41s.01,0,0-.01c0,0-.02,0,0,.01m.09,.1c-.08,.04-.14-.01-.21-.01,.04,.06-.06,.13,.02,.18,.07,.09-.12,.15-.16,.05,.04,.18,.27,.25,.26,.46,.08-.23,0-.45,.1-.68m-.25,.48s0,0,0,0h0Zm.03,.3s-.04-.02-.07,0c.03,.04,.04,.03,.07,0m-.12-2.42s-.04-.02-.07,0c.03,.02,.04,.02,.07,0m-.06,1.58s0-.01-.01,0c0,0,0,.02,.01,0m-.03-3.52h0s0,0,0,0m-.05,.1s0,0,0,0h0Zm.26,2.84s.03,0,0,0c0,0,0,0,0,0m.02-3.78c-.05-.05-.11,.06-.06,.09,.02-.03,.04-.05,.06-.09m-.03,3.26s0,0,0,0h0Zm.02-.91s-.02-.03-.03,0c0,.02,.02,.03,.03,0m.17-2.38s.03-.02,0-.04c0,.02-.02,.03,0,.04m-.01,.89s0,.01,0,.02c0,0,0-.01,0-.02m-.06,.09s-.01,.02,0,.03c.02,0,.02-.02,0-.03m-.05,3.19s0,0,0,0h0Zm.03-4.26c.06-.02,.01-.06-.02-.08-.05,.04-.01,.05,.02,.08m.03,2.92s0,.02,0,.04c.02-.01,.03-.03,0-.04m.1-.62c0-.06,.03-.16-.06-.16,.05,.05,.07,.09,.06,.16m0,.53h0s0,0,0,0m.11-.45c.15-.07-.23-.1-.12,.01,.02,.03,.07-.02,.12-.01m.13-.46s.07-.01,.04-.04c-.17-.35-.11-.07-.42,.09,.18,.04,.25-.33,.39-.05m-.03,.07s0,0-.01,0h.01Zm-.03,.84s.07,.01,.03-.03c-.01,.01-.03,.02-.03,.03m.27-1.09s.02,.02,.03,.03c0-.02-.01-.05-.04-.06,0,.01,0,.02,0,.03m-.02-1.46s.01,0,0-.01c-.01,0-.01,0,0,.01m-.05,.69s-.04-.02-.07-.03c.02,.02,.03,.06,.07,.03m-.04,1.74s.04,.11,.1,.08c.09-.09-.08-.26-.1-.08m.24-1.07s-.01,.01-.02,.02c.02,0,.03-.01,.04-.03,0,0-.01,0-.02,.01m.09-.69s0,0,0,0h0Zm.01-.8s.01-.05,.01-.07c0,.02-.05,.08-.01,.07m-.97-.32c.1,.11,.26-.14,.35-.1,.05,.06,.02,.14-.06,.17,.14,0,.15,.24,.33,.18,.09-.03,.1,.04,.17,.05,.1-.06,.11-.33,.2-.1h0c.07,.09,.2,.19,.17,.3,.05,.17-.13,.05-.17,.13,.12,.15,.24-.06,.27-.15-.15-.18-.06-.41-.29-.55-.04-.02-.13-.14-.14-.05,0,0,.01,.01,.02,.02-.5-.01-.15-.14-.33-.23-.1,.02-.1-.09-.15-.13-.07,.03-.23,.06-.13,.14,.03,.07-.09,.21-.15,.11-.09,0-.11,.11-.08,.17m.23-1.39c-.01,.13,.08,.07,.13,0-.04-.09-.18-.11-.13,0m.16,.78s0,0,0-.01h0Zm.05-1.01h0s0,0,0,0m.1,.29s.02,.01,.01,0c0,0-.01,0-.01,0m0-.38s0,0,.01,0c0,0-.01,0-.01,0m.07,1.03s.03,.09,.04,.13c-.01-.05,.03-.26-.04-.13m.12-.2s.01-.02,0-.03c-.01,0-.01,.02,0,.03m.02-.22s.01,.02,.03,0c0-.02-.01-.02-.03,0m.29,2.7s-.02,.02,0,.03c.02,0,.03-.03,0-.03m.12,2.7s.03-.02,.04-.04c-.02,0-.03,.02-.04,.04m.39-.2s0,0,0,0h0Zm-1.78-2.06s0-.02-.01-.01c0,0,0,.02,.01,.01m-.07,1.03v-.04s-.03,.03,0,.04m-.03,2.42s0-.02-.02-.01c0,.02,0,.02,.02,.01m-.04-8.99s-.04,0,0,0c0,0,0,0,0,0m-.01,.82s0,0,0,0c-.01,.01,.02,.02,0,0m-.02,7.28s-.02,0-.01,0c0,0,.01,0,.01,0m-.02-7.08s0,0,.01,0c0,0,0,0-.01,0m-.01,7.76s0,0,0,.01h0Zm-.04-7.4s-.01,0-.01,0c0,0,.02,.02,.01,0m-.02,3.9s0,0-.01,0c0,0,.01,.01,.01,0m-.04,3.78s-.04-.02-.05,0c.02,0,.03,0,.05,0m-.05-.15s.03,.02,.05,.02c0-.03-.02-.02-.05-.02m.02-7.7s.02,0,.02-.01c0-.01-.02,0-.02,.01m-.21,.15s-.03,.02-.04,.03c.02,0,.06-.01,.04-.03m-.07,.06s.01-.01,.02-.02c0,0-.04,0-.02,.02m-.05,4.76s0,0,0,0h0Zm-.03-5.42s-.01-.01-.01,0c0,0,0,0,.01,0m-.12,.15s-.14,.04-.06,.07c.06,.03,.05-.03,.06-.07m-.04,7.34s0,0,0,0h0Zm-.02-6.88s-.01,0-.01,0c0,0,0,0,.01,0m-.08-.34h0s0,0,0,0Zm-.2-1.41s-.04,.01-.04,.03c.02-.01,.03-.02,.04-.03m-.04,10.42s-.03,.02,0,0c0,0,0,0,0,0m-.08-8.68s.02,0,.03,0c-.01,0-.02-.03-.03,0m0-1.85s-.07,0-.09,.02c.04,.05,.07,0,.09-.02m-.08,10.43h0s0,0,0,0m-.02-10.41c-.05-.09-.17-.05-.23,0,.06,.07,.15,.03,.23,0m-.04,10.11s0-.06,0-.09c0,.03-.04,.09,0,.09m-.09-8.32s-.03,0-.05,.02c.01,.02,.03,0,.05-.02m0-3.83s0,.02,.01,0c0,0,0,0-.01,0m.01,.48s-.01,.02,0,.03c.01-.01,.01-.02,0-.03m.09,1.2h0s0,0,0,0h-.01Zm.09-1.22h0s0,0,0,0m.05,.66h.01s0,0-.01,0m-.37,.97s0,0,0,0h0Zm-.13,.04s0,0,0,0h0Zm-.05-.29s-.05-.03-.07,0c.03,.03,.04,.02,.07,0m-.08,.2s-.01,0-.02,0c0,0,.01,0,.02,0m-.06-.03s.02,.01,.03,.02c-.02-.08-.12-.1-.03-.02m-.09,10.9c.06,.06,.09,.05,.17-.02-.06,0-.11,.02-.17,.02m-.02,.1c-.07,0-.39-.05-.31,.05,.09,.03,.36,.1,.31-.05m-.37-13.84s-.12,0-.13,.03c-.12,.26,.2,.23,.13-.03m-.08,13.84s0,0-.01,0c0,.01,0,0,.01,0m.13-12.42s0,0,.01,0c.03-.02-.02-.03-.01,0m.11,.06s0,0,0,0h0m-.06-1.35c.01,.12,.15,.02,.04-.04-.02,.02-.05,.03-.04,.04m.09,13.61s-.02,.02,0,.02c.02,0,.02-.01,0-.02m.01-.11s-.02-.01-.02,0c0,0,.02,.01,.02,0m0-13.65s.02,.02,0,0h0m.1,2.96s.04,.02,.06,.01c-.02-.01-.04-.02-.06-.01m0-2.33s.02,.01,.01,0c0,0-.01,0-.01,0m.07,13.07s0,.06,.03,.06c0-.03,0-.04-.03-.06m.18-11.78s.03-.02,0-.03c0,.01,0,.02,0,.03m-.89,11.96s-.05,0-.05,.02c.02,0,.04-.01,.05-.02m-.2-13.47s-.1-.09-.11-.05c.03,.04,.05,.09,.11,.05m-.88-.24c.02-.09-.07-.33-.12-.08-.03,.05,.07,.07,.01,.11-.02,.13,.15,.08,.11-.04m-.56,13.47s-.01,.02,0,0c0,0,0,0,0,0m-.1-13.22s-.03-.01-.02,0c0,.01,.02,.01,.02,0m-.27-.09l-.03-.04s0,.06,.03,.04m-.11-.26s-.02-.05-.04-.03c0,.02,.01,.05,.04,.03m-.29,.24c-.05-.15,.16-.14-.21-.14,.02,.09,.19,.07,.16,.2,.03,.07,.08-.03,.05-.06m-.02,.51h0s0,0,0,0h0Zm-.81-.79s-.02,.03-.02,.05c.02-.02,.02-.03,.02-.05m0,.19s-.01,0,0,.02c0,0,0-.01,0-.02m-.12-.25s-.11-.09-.13-.04c0,.07,.08,.06,.13,.04m-.06,.21c0-.09-.12-.05-.19-.06,.02,.1,.12,.07,.19,.06m-.2-.06s-.04-.11-.09-.08c-.03,.07,.04,.07,.09,.08m-.51,6.02s.02,.02,.03,.02c-.01,0-.02-.04-.03-.02m-.12-5.94s-.03,0-.03,.02c.01,.02,.02,0,.03-.02m-.05,4.32s-.02-.02-.03,0c0,.02,.01,.02,.03,0m-.69-4.55c-.06-.05-.15-.01-.11,.06,.03-.02,.06-.04,.11-.06m-.11,.19s-.01,.01,0,.01c0,0,0,0,0-.01m-.19-.12s0,0,0,0c0,0,0,.01,0,.02,0,0,0,0,0,0m-.2,.03s-.03-.04-.06-.08c-.03,.05,.05,.14,.06,.08m-.01,.46s-.01-.03-.02-.04c0,.02-.02,.06,.02,.04m0,4.22s-.01,0,0,.01c0,0,0,0,0-.01m-.07-2.16s-.03,.06-.05,.09c.02-.03,.03-.06,.05-.09m-.1-2.52s0-.02-.01-.02c0,.01,0,.03,.01,.02m-.05,.28h0s0,0,0,0h0m-.02-.16s0-.01-.01,0c0,.01,0,0,.01,0m-.01,.24s-.03,0,0,0c0,0,0,0,0,0m-.06,.14s-.02,0,0,0c0,0,0,0,0,0m-.02-.34s0-.01-.01,0c0,0,0,.02,.01,0m-.22-.07s-.02,0-.02,0c.01,.01,.02,0,.02,0m-.02-.24h0s.01,.02,0,0m-.06,.89s0,0,0,0h0Zm-.07-.65s0,0,0,0h0Zm.02-.11s.04,0,.06-.02c-.02-.03-.04,0-.06,.02m-.29-.09s-.02,.02-.03,.03c.01,0,.02-.02,.03-.03m-1.46-.09s0-.01-.02,0c0,0,0,.02,.02,0m-.24,.14c-.03-.05-.08,.04-.04,.06,.01-.02,.03-.04,.04-.06m-.09,.51s0,.01,0,.02c.01,0,0-.01,0-.02m-.17-.11s-.02-.01-.03,0c.01,.01,.02,.02,.03,0m-.51-.52s0,0-.01,0c0,0,.01,.01,.01,0m-.14,13.97s-.06-.1-.11-.07c.03,.05,.02,.12,.11,.07m-.59-13.71s0,0,0,.01c0,0,0,0,0-.01m-.19,12.87h0s0,0,0,0h0m-.1-13.01s0-.02-.01-.03c-.02,.02,0,.03,0,.05,0,0,0-.01,0-.02m-.05,.2s-.01-.02-.02-.02c0,.02,0,.03,.02,.02m-.4,13.99s0,0,0,0h0Zm-.08-13.45s-.02-.02-.03,0c0,.02,.02,.02,.03,0m0,13.13s-.02,0,0,.01c0,0,0,0,0-.01m-.13,.21s-.02,0,0,0c0,0,0,0,0,0m-.21-.01s0,0,0,.01c0,0,0,0,0-.01m-.08-.11s-.01,0-.01,0c0,0,.01,0,.01,0m-.13,.26s-.04-.01-.05,0c.02,.03,.03,.02,.05,0m-.21-.41s0-.01,0-.02c-.15,.11-.06,.23,0,.02m0,.32s-.11-.08-.16-.06c-.03,.12,.09,.18,.16,.06m-1.08-.13s0-.01-.01,0c0,0,0,0,.01,0m-.16-.05s-.01,0-.01,0c0,0,.01,0,.01,0m-.18,.07s-.03-.02-.04,0c0,.03,.03,.02,.04,0m-.11-13.7s0-.01,0,0c0,0,0,.01,0,0m-.58,.43s0,0,0,0h0Zm-.17,13.44s-.04-.01-.06,0c.02,.01,.04,.01,.06,0m-.16-13.76s0-.01,0-.02c0,.01-.01,.02,0,.04,0,0,0-.01,0-.02m-.07,13.72s-.06-.03-.09,0c.03,.02,.06,.01,.09,0m-.04-.32s0,0,0,0c.02,0,0-.02,0,0m-.9-13.13s-.04,0-.06,0c.02,.02,.04,0,.06,0m-.27,13.36s-.03,0-.04,.02c.01,.02,.03,0,.04-.02m-.2-12.56h-.01s0,0,.01,0m-.2-.02h0s0,0,0,0h0Zm-.01-.8s-.03-.01-.03,0c0,.02,.02,0,.03,0m-.44-.56s-.02,0-.02,.01c.01,0,.02,0,.02-.01m0,.14s-.02,.02,0,0c0,0,0,0,0,0m-.06-.07s-.02,0-.02,0c.01,.01,.02,0,.02,0m-.11,.15s0,0,0,0h0Zm-1.14,13.77s-.02-.01-.02,0c0,0,.02,.01,.02,0m-.35-13.59s0-.04-.01-.04c-.02,.02-.03,.06,.01,.04m-.1-.1s0,0,0,0c0,0,0,0,0,0m-.26-.29s0,0,0,0c-.02,0,0,.03,0,0m-.37,.2s0,0,0,0c0,0,0,0,0,0m-.82,.41s.01-.07,.02-.1c0,.04-.08,.06-.02,.1m-.63-.48c-.02-.11-.24-.13-.13-.03,.07-.04,.12,.1,.13,.03m-.22-.16s0,0,0,0c0,0,0,0,0,0m-.36-.02s0,0,0,0h0Zm0,14.11s-.05-.03-.08-.04c-.04,.06,.03,.1,.08,.04m-.12-13.96s0,0-.01,0c0,0,0,0,.01,0m-.14,13.85s-.07-.06-.11-.02c.03,.05,.07,.05,.11,.02m-.15-13.4s-.01,0-.01,0c0,0,.02,0,.01,0m-.27,.06s0-.01-.01-.01c0,0,0,.02,.01,.01m-.07,13.47s0-.01,0-.01c0,0,0,.01,0,.01m-.19-13.89s0,0-.01,0c0,0,0,.01,.01,0m-.11-.06s0,0-.01,0c0,0,.01,0,.01,0m.71,.23s0,0,.01,0c0,0-.01,0-.01,0m-.98-.4s-.03,0-.04,.01c.02,.02,.03,0,.04-.01m0,1.61s0-.02-.02,0c0,0,.02,.01,.02,0m-.09-.77s-.02,0,0,0c0,0,0,0,0,0m-.19-.35s-.03-.06-.04-.09c-.04,.03-.02,.12,.04,.09m0,13.65s0,0-.01,0c0,0,0,.02,.01,0m-.22-14s-.01-.01-.03-.02c-.04,.04,.01,.07,.03,.02m-.16,.32s-.02,0-.02,0c0,.01,.01,0,.02,0m-.15,13.41s-.03-.01,0,0c0,0,0,0,0,0m-.06-13.51s-.02-.01-.02,0c0,.01,.02,0,.02,0m0,13.76s-.01,0-.01,0c0,0,.01,0,.01,0m-.48-14.04c-.03-.07-.05-.06-.09,0,.01,.05,.05,.05,.09,0m0,.16s-.02-.01-.03,0c.01,.01,.02,.02,.03,0m-.29-.27s0,0-.02,0c0,.01,0,0,.02,0m-.01,.6s-.01,0-.01,0c0,0,0,0,.01,0m-.06-.43s-.02,0-.03,0c.01,.01,.02,.01,.03,0m0,13.56s0,0,0,0h0Zm-.04-13.48s0,0,0,0h0Zm-.02,.19s-.02,0,0,0c0,0,0,0,0,0m-.03-.41s-.01-.02-.02,0c0,.01,.01,.02,.02,0m-.02,13.73s0-.02-.02-.01c0,0,0,.02,.02,.01m-.31-13.8c-.04-.22-.14-.03-.26-.03,.1,.22-.19,.19-.31,.1,0,.4,.1,.02,.38,.15,.18,.02-.01-.1,.19-.21m-.12,2.53s.02,0,0-.02c0,0-.02,.01,0,.02m.02,11.68s-.03,0-.04,.01c.02,.01,.03,0,.04-.01m-.07-13.68s-.01,.02-.02,.03c.02,0,.02-.02,.02-.03m-.05-.22v-.02c-.07,.01-.04,.06,0,.02m-.07,.33s-.04,0-.03,.03c0,0,.02-.02,.03-.03m-.15-.34s-.02,0-.03,0c0,0,.02,.03,.03,0m-.26,.27c-.04-.06-.08,.06-.04,.09,.01-.03,.03-.06,.04-.09m-.08-.17s.02-.04,0-.1c-.04,.06-.04,.06,0,.1m-.16-.14c.06-.04,.04-.16,0-.06,0,.07-.08,.05-.13,.07,.05,.02,.1,.03,.14-.01m-.08,.15h0s-.01,0,0,0m.03,.18c-.05-.04-.12,0-.11,.06,.03,.03,.07-.04,.11-.06m-.1-.46s0-.03-.02-.05c-.01,.03,0,.03,.02,.05m-.33,.05s0-.02,0-.03c-.02,.02-.01,.03,0,.05,0,0,.01-.01,.01-.02m-.05,.26s-.03,0,0,0c0,0,0,0,0,0m0,13.36h0s0,0,0,0m-.05-13.11s-.05,0-.01,.01c0,0,.01,0,.01-.01m-.08-.52s.02,0,.06,0c0,0,0,0,.02,0-.01-.05-.13-.05-.08,0m-.16,.41s0,0,0,0h0Zm-.02,.58s0,0-.01,0c0,0,.01,0,.01,0m-.09-1.02s-.01,0-.02,0c0,.01,.01,0,.02,0m-.04,.1s-.04-.03-.06,0c.03,.02,.03,.03,.06,0m0,.21s-.02,0,0,0c0,0,0,0,0,0m-.16-.2s-.03,0-.04,.01c.02,.01,.03,0,.04-.01m-.04-.14s0,0,0,0c0-.02-.02,0,0,0m-.63,.5s-.01-.04-.02-.09c-.06,.04-.02,.13,.02,.09m-.41,13.52s0,0,0,0h0Zm-.34,.02s0,0,0,0h0Zm-.61-13.72s0-.01,0-.02c-.02,.01,0,.02,0,.04,0,0,0-.01,0-.02m-.3-.06s0,0,0,0h0Zm-.04,.35s-.02,0,0,0h0m-.32-.7s0-.02-.01,0c0,0,0,.01,.01,0m-.91,13.91s-.03-.01-.03,0c0,.02,.02,0,.03,0m-.03,.13h0s0,0,0,0h0Zm-.13-14.18s-.01,0-.01,.01c0,0,.01,0,.01-.01m-.26,.81s0,0,0-.01c0,.01,0,.02,0,.03,0,0,0-.01,0-.02m-.38,12.96s-.06-.05-.08,0c.02,.05,.04,.04,.08,0m-1.01,.49s0,0,0,0h0Zm-.06,.06s-.01,0-.01,0c0,0,.01,0,.01,0m-.26-.6s-.03,0-.04,.01c.02,0,.03,0,.04-.01m-.05,.33s-.02,0-.03,.01c0,0,.02,0,.03-.01m-.03,.02c-.03,.06-.15,.13-.19,.06-.05-.14-.07-.01-.09,0-.25,.22,.38,.27,.28-.07m-.4,.03c-.05-.05-.06,0-.1,.02,.04,.04,.06,0,.1-.02m-.12-.45h0s0,0,0,0m-.01,.62s0-.03-.02-.04c-.11,.13-.06,.25,.02,.04m-.15-.11s0,0,0,0c0,0,0,0,0,0,0,0,0,0,0,0m-.09,.18s-.06-.03-.1,0c.03,.03,.06,.03,.1,0m-.1-.67s-.07-.02-.11,0c.04,.03,.07,.02,.11,0m-.06,.13s0-.02,0-.02c0,0,0,.02,0,.02m.04,.36s-.05,0-.05,.02c.02,0,.04-.01,.05-.02m-.07,.07s-.04-.09-.08-.05c.03,.02,.05,.04,.08,.05m-.34,.08s-.1-.01-.17,.01c.05,0,.13,.04,.17-.01m-.17-.42s.02,.02,.04,0c-.01-.02-.03-.03-.04,0m-.2-.23s-.01,0,0,.01c0,0,.01,0,0-.01m-.45,.72s-.04-.09-.07-.05c.02,.03,.01,.07,.07,.05m.8-14.14s0,0,0-.01c0,0,0,0,0,.01m.41,.54s.03,0,0,0c0,0,0,0,0,0m.09,13.47s.01,0,0-.01c0,0-.01,0,0,.01m.67-.43s.02,.02,.04,.02c0-.03-.02-.02-.04-.02m.11,.07s0,0,0,0c.02-.01-.02-.02,0,0m-2.37,.02s-.02,0-.03,0c.01,0,.02,0,.03,0m-.07-.18h0s0,0,0,0m-.23,.08s-.05-.02-.07,0c.02,.03,.04,0,.07,0m-.1,.26s-.02-.02-.04-.02c0,.03,.02,.02,.04,.02m-.16-.19s-.04-.01-.07-.02c.02,0,.05,.05,.07,.02m0,.49s-.02-.03-.04-.03c0,.01,.03,.05,.04,.03m-.07-.51s0,0,0,0c0,0,0,0,0,0m-.31,.49s.09,0,.14,.01c-.06-.13-.3-.08-.14-.01m-.12-.32s0,0-.01,0c0,0,.01,0,.01,0m-.09-.3s-.01,0-.02,0c0,.01,.01,0,.02,0m-.03,.61s-.07-.02-.08,.02c.04,0,.05,.01,.08-.02m-.26-.13s-.03-.04-.06-.01c-.41,.22,.15,.32,.06,.01m-.46-.49s0,0-.01,0c0,0,0,0,.01,0m-.06,.5c-.09-.02-.16-.01-.19-.11-.04,.1,.09,.17,.19,.11m-.23,.19s0,0-.01,0c0,0,0,0,.01,0m-.09-.56c-.1-.12-.29-.1-.36,.02,.02,0,.05,.03,.06,.02,.11-.09,.2,.03,.3-.04m-.1,.45s0,0,0,0c0-.01-.02,.01,0,0m.04,.06s-.07-.02-.11,0c.04,.01,.08,.03,.11,0m-.15-.23s0-.01-.01,0c0,0,0,0,.01,0m-.13,.06s-.06,0-.09,0c.02,.04,.09,.03,.09,0m-.11-.01s.01,0,.02,.01c0,0-.01-.01-.02-.01m0-.53s0,.01,.01,0c0,0,0-.01-.01,0m-.17,.57s-.02-.02-.03,0c0,.02,.01,.01,.03,0m-.08-.43h0s0,0,0,0h0Zm-.12-.08c-.06-.05-.07-.03-.11,.01,.04,.05,.06,.02,.11-.01m.4-10.93h0s0,0,0,0m.58,10.94s.02,0,.01,0c0,0-.01,0-.01,0m-1.15,.45s-.03-.07-.04-.11c-.01,.06-.17,.1-.09,.15,.05,.11,.11,.07,.12-.04m-.15,.18s-.01,0-.02,0c0,.01,.01,0,.02,0m-.12-11.88h0s0,0,0,0Zm-.02,11.14s-.02,0,0,.01c0,0,0,0,0-.01m-.14,.53c-.08-.05-.14,.01-.21,.05,.06,.02,.27,.05,.21-.05m-.12-.32s0,0,.01,0c0,0-.01,0-.01,0m.03-.19s.01,0,.02,0c0,0-.01,0-.02,0m-.25,.5c-.01-.07-.07-.03-.03,.03,.01-.01,.03-.02,.03-.03m-.07,.13s-.01,.02,0,0c0,0,0,0,0,0m-.07-.11s0,0-.01,0c0,.01,0,0,.01,0m-.05-.55s0,0-.01,0c0,0,.01,0,.01,0m-.02,.37s-.04,0-.07,0c.02,.03,.04,0,.07,0m-.04,.38c-.07,0-.12-.06-.19-.04,0,.07,.14,.08,.19,.04m-.22-.3s-.02,0-.02,0c0,0,.02,0,.02,0m-.08-.32s-.03-.03-.04,0c0,.03,.02,.03,.04,0m-.14,.34s-.03,0,0,0c0,0,0,0,0,0m-.28-.29s0,0-.01,0c0,0,0,0,.01,0m-.28,.32s-.02-.01-.03,0c0,.01,.02,.01,.03,0m-.02,.18h0s0,0,0,0m-.35-.19c-.02-.12-.22,.06-.16,.11,.06,.02,.16-.06,.16-.11m-.3-.02s-.05-.03-.07-.01c.02,0,.05,.03,.07,.01m-.08-.26s-.07-.07-.1-.02c.03,.03,.08,.09,.1,.02m-.11,.41c-.03-.06-.03-.08-.07-.15-.03,.07,0,.15,.07,.15m-.09-.5s0,0,0,0h0Zm-.15,0s-.02-.01-.02-.01c-.34,.03-.08,.39,.02,.01m-.2-13.33s-.02,.03-.03,.06c.04,.01,.03-.04,.03-.06m-.09,13.57s-.02-.01-.03,0c0,.01,.02,.01,.03,0m-.05-.22s-.01-.02-.03-.01c0,.02,0,.02,.03,.01m-.1,.06s-.01,0-.01,0c0,0,0,0,.01,0m-.07,.19s-.01,0,0,.01c0,0,.01,0,0-.01m-.22-13.32s0,0-.01,0c0,0,0,.01,.01,0m-.02,12.9s-.02,0-.03,.01c.02,.02,.02,0,.03-.01m-.43,.22s-.02,.02-.02,.04c.03,0,.03-.02,.02-.04m-.15,.32c-.03-.05-.08-.01-.12,0,.03,.03,.08,0,.12,0m-.12-.23s.03-.02,.05-.03c-.03-.03-.06,0-.1,0,.01,0,.03,.01,.04,.02m-.04-.26s.01,0,.02,0c0-.01,0,0-.02,0m-.27,.27s-.04,0,0,0c0,0,0,0,0,0m-.06-.26c.06,0,.02-.04,0-.05-.02,.02-.03,.04,0,.05m-.11,.53c-.07-.07-.09-.05-.16,0,.06,.07,.08,.07,.16,0m-.17,.11s-.02,.02-.02,.04c.03,0,.03-.02,.02-.04m-.04-.25s0,0,0,0c-.02,.01,0,.02,0,0m-.03,.2s0-.01-.02,0c0,0,0,.02,.02,0m.1-.32s0,0,0,0c0,0,0,0,0-.01,0,0,0,0,0,0m.02-.11c.08,0,.07-.09,.09-.14-.05-.07-.11,.09-.09,.14m-.23,.02c-.03-.06-.12,0-.12,.05,.03,.04,.09-.04,.12-.05m-.08,.42s-.02,0-.02,0c0,.01,.02,0,.02,0m.02-.61c.06-.05-.04-.04-.08-.03,0,.06,.04,.04,.08,.03m-.06,.11s-.03,.03-.03,.05c.02-.01,.03-.03,.03-.05m-.04,.05c-.06-.01-.23,0-.16,.08,.06-.03,.11-.06,.16-.08m-.07,.48s-.06,.09-.1,.13c.07-.01,.13-.05,.1-.13m.2-.7s0,.01,0,.02c.04-.01,.03-.07,0-.02m-.43,.26s-.04-.13-.09-.09c-.02,.05,.05,.1,.09,.09m-.03,.43s0,0,0,0h0Zm-.08-.37c-.07-.06-.12-.04-.19,.02,.07,.03,.13,0,.19-.02m-.02,.2s-.05,0-.07,.02c0,.05,.04,0,.07-.02m-.1-.44s0,0,.01,0c0,0,0,0-.01,0m-.22,.14c-.22,0-.4-.04-.59-.14,.25,.32,.15,.19,.59,.14m-.35,.45s-.01,0-.01,.01c.01,0,0,0,.01-.01m-.35-.37s-.02-.03-.03-.01c0,.02,.02,.03,.03,.01m-.08-.16s0,0-.01,0c0,0,0,0,.01,0m0-.18s0,0,0,0c-.01-.01-.02,.02,0,0m-.1,.1s-.08-.06-.1,0c.04,.06,.06,.07,.1,0m-.02,.23c-.08-.1-.14,.03-.03,.11,.02-.05,.03-.08,.03-.11m-.06,.23s-.12-.16-.15-.07c-.1,.06,.07,.12,.15,.07m-.03,.19h0s0,0,0,0m-.16-.7c.09-.14-.33-.07-.38-.07,.12,.05,.24,.22,.38,.07m-.13,.25s-.04,0-.07,.03c.03,.03,.04,0,.07-.03m-.25-.06s0,0,0,0c0,0,0,0,0,0m-.01,.01c-.1-.08-.21-.14-.12-.27-.33-.09,.03,.45,.12,.27m.43-.08s.05,.07,.07,.02c-.02-.02-.05-.06-.07-.02m-.84,.05c.01-.21-.13-.06-.23-.02,.04,.06,.17,.09,.23,.02m-.21,.16s-.01,0-.01,.01c0,0,.01,0,.01-.01m-.05,.22c-.04-.17-.24-.06-.17,.06,.06,.02,.17,.01,.17-.06m-.21-.4s.09,0,.04-.05c-.02,.02-.03,.03-.04,.05m-.01,.26s0,0,0,0h0Zm.01-13.53s0,0,.01,0c0,0,0,0-.01,0m.18,13.03s.02,.01,.02,0c0,0-.02,0-.02,0m.37,.82s.06,0,.12-.02c-.07-.07-.07-.02-.12,.02m.18-.06s.03,.01,.03-.01c-.02,0-.03-.01-.03,.01m-.82-.31s-.02,0-.02,.02c0,0,.01-.01,.02-.02m-.03,.06c.02-.06-.06-.02-.07,.01,.01,.04,.05,.02,.07-.01m-.08,.18s0,0-.01,0c0,.01,0,0,.01,0m-.02-.43s-.03,0-.03,0c0,.02,.02,0,.03,0m-.16,.34c0,.08,.03,.15,.05,.23-.01-.07,.08-.25-.05-.23m-.04-.02s.02,.01,.03,.02c-.01,0-.02-.03-.03-.02m0,.24s-.04-.01-.07,0c.03,.01,.03,.01,.07,0m-.13-.31s-.02,.01,0,.03c.02,0,.02-.01,0-.03m-.12,.27s-.01,0-.01,0c0,0,.01,0,.01,0m-.04-.74s-.09-.01-.13,0c.05,.03,.09,.06,.13,0m-.03,.81s0,0-.01,0c0,.01,0,0,.01,0m-.02-.36c-.15-.05,.12-.47-.12-.26-.03,.13-.2-.01-.27,.01-.13,.03,.15,.13,0,.29,.21,.07,.19-.21,.4,.08,0-.04,0-.08,0-.11m-.46-.45c.02,.05,.04,.01,.08-.01-.03-.04-.05,0-.08,.01m.47-13.02s0,0,0,0h0Zm.31,13.33s.01,0,.01,0c0-.01-.01,0-.01,0m.07-.14s.03,.01,.04,0c-.01-.03-.03-.02-.04,0m-.91,.49s-.02-.01-.02,0c0,0,.02,.01,.02,0m-.08-.05s0,0,0,0h0Zm-.05,.18s0,0,0,0c-.02,0,0,.02,0,0m0-.4c-.04-.06-.05-.06-.1-.02,.03,.04,.04,.06,.1,.02m-.06,.27c.02-.09-.05-.1-.09-.03-.04,.08,.1,.12,.09,.03m-.2-.66h0s0,0,0,0m-.04,.23s-.01-.04-.03-.02c0,.02,.01,.04,.03,.02m-.04,.24s-.02-.03-.04-.01c0,.03,.01,.03,.04,.01m-.03,.24s0-.01,0-.02c-.01,.01-.01,.03,0,.04,0,0,0-.01,0-.02m-.03-.59s-.07-.09-.12-.08c0,.08-.15,.09-.14,.15,.08-.03,.24,0,.26-.07m-.1,.17s-.03-.02-.03,0c.01,.02,.02,.03,.03,0m-.11,.47s0,0-.01,0c0,0,0,0,.01,0m-.08-13.88s0-.01-.02,0c0,.01,0,.02,.02,0m-.02-.19s0,0,0,0h0Zm-.1,13.58c-.09-.1-.14-.12-.25-.04,.06,.06,.17,.1,.25,.04m-.06,.39c-.08-.02-.13-.15-.22-.12,0,.06,.15,.15,.22,.12m-.27-.67c-.09-.03-.24-.02-.33,.03,.1,.04,.25,.06,.33-.03m-.03,.19s-.03-.02-.06,0c.03,.02,.04,.02,.06,0m-.18,.21s0-.02-.02-.02c-.01,.02,0,.02,.02,.02m.02,.34c-.01-.05-.03-.1-.05-.15,0,.05,0,.29,.05,.15m-.14-.11c-.02-.16-.23,.12-.06,.04,.02,0,.05-.02,.06-.04m-.19,.15s-.1-.03-.15-.02c.04,.05,.11,.11,.15,.02m-.19-.04s.02,0,.03,.01c-.01,0-.02-.03-.03-.01m.05-.07s.01,0,.02,0c0,0-.01,0-.02,0m.06-.06s.01,0,.02-.01c-.01-.01-.01,0-.02,.01m.06-.25c.25,.09-.04-.08,.08-.14,.02-.01,.04-.02,.02-.03-.12,0-.09,.1-.1,.18m.27-13.67s.01,0,.02,0c0,0-.01,0-.02,0m.04,.51c.02,.09,.11,.08,.18,.02-.07-.05-.14-.11-.18-.02m.34,12.86s.01,0,.01,0c0,0-.01,0-.01,0m.04-13.39s.02,.01,.03,0c-.01-.01-.02-.01-.03,0m.1,13.38s0,.01,0,.02c.01-.01,.01-.02,0-.04,0,0,0,.01,0,.02m.03-13.21s0,0,.01,0h-.01Zm.18,13.13s.02,.02,.04,.03c.02-.02-.02-.03-.04-.03m.52,.11s.01,0,.01,0c0,0-.01,0-.01,0m.02,.1s-.01,0,0,0c0,0,0,0,0,0m.07,.07s.01,.02,0,0c0,0,0,0,0,0m-.02-.27s.05-.02,.06-.03c-.02,0-.06,0-.06,.03M27.13,.36s-.01,0-.01,0c0,0,.01,0,.01,0m-.25,.04s-.03-.04-.04,0c0,.04,.02,.04,.04,0m-.12,.42s-.01-.02-.02,0c0,0,.01,.02,.02,0m-.96-.12s0,0,0,0c-.02,0,0,.02,0,0m-.21-.04s-.04-.03-.07-.02c.02,.03,.03,.02,.07,.02m-.08,.24c-.05-.04-.25,0-.18,.08,.04,.04,.03-.02,.05-.02,.08,0,.12,.04,.13-.06m-.45,12.77s-.02,.02,0,.03c.01-.01,.03-.02,0-.03m0,.32c-.12,.07-.68-.15-.34,.11,.14-.06,.07,.07,.14,.11,.15,.05-.02-.24,.21-.17,.15,.06,.15-.11,0-.05m.14-.16h0s0,0,0,0m.05-.2s0,0,.01,0c0,0,0,0-.01,0m.11,.38c.06,.12,.23,.06,.35,.07-.07-.13-.3-.03-.29-.19-.06-.06-.07,.08-.05,.11m.29-.12c.05-.03,.07-.04,.02-.08-.03,.03-.07,.04-.02,.08m-.16,.59h0s0,0,0,0h0Zm-.11-.24s-.01,.03,0,0c0,0,0,0,0,0m-.24,.04s0,0,.02-.02c-.03-.02-.06,0-.02,.02m.02,.25s-.22-.12-.21-.02c.07,.08,.15,.14,.21,.02m-.47-.23s0-.01-.01-.02c0,.01,0,.01,.01,.02m.18,.14c-.11-.04-.27-.08-.22,.06,0,.1,.18-.02,.22-.06m-.28-.28c-.29-.24-.32-.03-.42-.17,0-.11-.07-.14-.16-.11,.15,.1,0,.11,.01,.22,.27-.04,.06,.14,.16,.16,.12-.02,.2-.27,.28-.13,0,.06,.17,.08,.13,.02m-.21,.28c0-.09,.02-.19-.07-.24,.07,.16-.12,.24,0,.27,.06,.03,.06,0,.06-.03m-.19,.18s-.02-.01-.03,0c.01,.01,.02,.02,.03,0m-.17-.34c-.07,.03-.17-.01-.23,.03,.01,.08,.21,.05,.23-.03m-.26,.31h0s0,0,0,0m.22-.48s.02,.02,.03,.03c.02-.04,0-.04-.03-.03m-.22,.07c.06-.14,.21-.02,.26-.14-.19-.26-.51,.35-.26,.14m-.17,.26c.03,.05-.03,.14,.03,.16,.05,0,.1-.25-.03-.16m-.02,0s.01,0,.02,0c-.02-.04-.08-.03-.02,0m-.03-.26c-.08-.17-.13,.1-.22,.14,.07,.03,.22-.09,.22-.14m-.26-13.18s-.03-.02-.05,0c.02,.02,.03,.02,.05,0m-.03,13.09s-.02-.02-.05-.02c0,.03,.03,.02,.05,.02m-.04,.18s0,0,0,0h0Zm-.01,.17s-.07,0-.11,.01c.04,.03,.07,0,.11-.01m-.15-.42s.05,.02,.07-.02c-.04-.01-.05-.01-.07,.02m-.05,.3s-.03-.02-.06,0c.03,.02,.03,.02,.06,0m-.05,.19s-.09-.15-.14-.08c.02,.05,.08,.11,.14,.08m-.11-.26c.08,.02,.11-.26-.2-.06-.06-.13-.03-.17-.21-.09-.08,.08-.17-.12-.33,.08-.04,.07-.25,.01-.2,.14,.06,.08,.16-.1,.19,.01,.04,.27,.3-.29,.42-.1,.06,.29,.14-.11,.33,.02m-.13,.25c-.04-.06-.06-.02-.1,.01,.02,.05,.06,0,.1-.01m-.22,.01c-.05-.06-.11-.08-.15,0,.06,.03,.1,.08,.15,0m-.27,.06c-.05-.07-.08-.03-.13,.01,.05,0,.09,.01,.13-.01m-.3-.52c.17,0,.06-.24,.19-.19,.04,.02,.05,.01,.05-.02,.08-.11-.18-.29-.27-.18-.01,.09,.13,.16,.07,.25-.13,0-.23,.15-.04,.15m-.11-.25c0-.06-.1-.08-.14-.03,.04,.02,.09,.04,.14,.03m-.04,.32s0-.02-.02-.03c-.04,.03,0,.07,.02,.03m-.1-.43s-.11,0-.14,.04c.05,.04,.1,0,.14-.04m-.18,.34s-.01,0-.01,0c0,0,.01,0,.01,0m-.08-.33s-.05,.03-.07,.04c.04,.03,.1,0,.07-.04m-.12-12.98s-.03,0,0,0c0,0,0,0,0,0m.43,12.87s0,.02,.01,0c0,0,0,0-.01,0m.07-12.9s.03,0,.04,0c-.02-.01-.03-.01-.04,0m.49,12.99s.07,.02,.1,0c-.04-.03-.07-.02-.1,0m.2,.11s.01,.01,.04,.05c.03-.05,0-.09-.04-.05m.24-12.79s-.03-.01-.05-.01c0,.02,.03,0,.05,.01m-.04,12.65s-.01,0-.01,0c0,0,.01,0,.01,0m0,.35h0s0,0,0,0m.06-13.19s-.02,0,0,.02c0,0,.01,0,0-.02m-.18-.35c.04,.19,.53,.09,.21,.02-.08,.05-.12-.08-.21-.02m.5-.04s.03,.02,.05,.02c0-.03-.02-.06-.05-.07,0,.02,0,.03,0,.05m.05,.03s.04,.07,.07,.03c-.02,0-.05-.03-.07-.03m.08,13.41c.02,.05,.07,.01,.03-.03-.01,.01-.03,.02-.03,.03m-.02-13.52s.03,.02,.06,0c-.04-.03-.06-.05-.06,0m.46,13.8s.01,.02,0,0c0,0,0,0,0,0m-.24-.2c.1,.02,.22,.02,.29-.02-.09-.03-.2,0-.29,.02m.07-13.2c.06,.01,.17,.13,.2,.05,0-.07-.23-.12-.2-.05m.14-.13s.01,.03,.02,.02c0-.02-.01-.03-.02-.02m.06,12.99c-.13,.18,.23,.02,.3,0-.09-.07-.21-.04-.3,0m.33,.11s0,.02,.02,.01c0,0,0-.02-.02-.01m.03-12.9s.01,0,.01,0c0,0-.01,0-.01,0m.09,.18s.01,0,0-.01c0,0,0,0,0,.01m.27,12.87s0,.02,.02,0c0,0,0,0-.02,0m.03-.28s.03,.07,.06,.02c-.02-.02-.03-.05-.06-.02m.2,0s-.02,0-.03,.01c.02,.02,.03,.03,.07,0-.02,0-.03-.01-.03-.01m-.11-13.18s.1,.09,.13,.03c-.05,0-.1-.07-.13-.03m.2,.11s.01,0,0-.01c0,0,0,0,0,.01m.04,13.21s.03,.01,.04-.01c-.02,0-.03-.01-.04,.01m.18-.08s.01,0,.01,0c0-.01,0,0-.01,0m1.14,.68h0s0,0,0,0m.03-.31s.01,0,.02,0c0-.01-.01,0-.02,0m.11,.5s.01,0,.01-.01c-.01-.01-.01,0-.01,.01m0-.69s.02,0,.02,0c0-.01-.01,0-.02,0m.09,.14c.03,.05,.07,0,.12-.01-.06-.05-.07-.01-.12,.01m.13,.36s-.04-.01-.06,.01c.03,.03,.03,0,.06-.01m.06,.29s.01,0,.01,0c0,0-.01,0-.01,0m-5.31-1.16s-.02,0-.04,0c.02,0,.03,0,.04,0m0,.62s-.01,0-.01,0c0,0,.01,0,.01,0m-.1-.48h0s0,0,0,0m-.08-.11s0,0-.01,0c0,0,0,.01,.01,0m-.02,.41s0,0,0,0h0Zm-.23,.58s0,0,0,0c0,0,0,0,0,.01,0,0,0,0,.01,0m-.02-.19s-.02,0,0,.01c0,0,.01,0,0-.01m-.02-.37s.02,.02,.04,.02c0-.03-.02-.02-.04-.02m0,.63s-.04-.02-.06,0c0,.04,.01,.02,.06,0m-.09-1.04s.05,0,.03-.03c-.02,0-.05,.01-.03,.03m-.06,.64s-.03-.01-.04-.02c-.03,.08,.09,.11,.04,.02m-.04,.1s.01-.02,.02-.03c0,.01-.03,.02-.02,.03m.02,.2s-.05-.01-.08,.01c0,.05,.05,0,.08-.01m-.11-.2c-.06-.01-.06-.02-.1,.01,.04,.02,.04,.01,.1-.01m-.12-.84s-.01,0-.01,0c0,.01,.01,0,.01,0m-.02,.69s-.08-.05-.1-.02c.03,.01,.07,.05,.1,.02m-.07,.53s0,0-.01,0c0,0,.01,0,.01,0m-.09-1.17s-.01,0-.01,0c0,0,0,0,.01,0m-.01,.68s-.01,0-.01,0c0,0,.01,0,.01,0m-.01-.17s0-.01,0-.01c0,0,0,.01,0,.01m-.04-13.4s0,0,0,0h0Zm-.05,13.33s-.03-.02-.04,0c.02,.01,.03,.02,.04,0m-.05-.17s0,0,.01,0c0,0,0,0-.01,0m-.18-13.16c-.08-.02-.08,0-.12,.02,.05,.02,.06,0,.12-.02m-.02,13.53s0,0,0,0h0Zm-.07-.05h0s0,0,0,0m-.09-13.28s0-.02-.02-.01c0,.02,0,.02,.02,.01m-.04,.22s-.03,0-.03,.01c.02,.02,.02,0,.03-.01m-.04,13.17c-.03-.08-.11-.04-.11,.03,.03,.08,.07,0,.11-.03m-.08,.33s-.05-.03-.07,0c0,.05,.05,.03,.07,0m-.1-13.64s.07,.09,.11,.05c-.01-.03-.08-.1-.11-.05m0-.19s.05,0,.08,0c-.02,0-.07-.03-.08,0m.09,.01s.05,.07,.07,.04c-.02-.01-.05-.03-.07-.04m.54,.22s.02,0,.02-.02c-.02,0-.02,0-.02,.02m.38,13.01s.02,.03,.03,0c-.01-.01-.03-.02-.03,0m.04-13.31h0s0,0,0,0m.35,12.83s.02-.01,0,0c0,0,0,0,0,0m.15,1.09c.11,.02,.2-.05,.08-.12-.07-.03-.05,.08-.08,.12m.16-.04c.07,.1,.14,.07,.23,.02-.04-.08-.16-.03-.23-.02m-1.73-.15s-.03,.04-.04,.06l.04-.06m-.04,.06s-.13,0-.16,.04c.03,.04,.15,.03,.16-.04m-.12-.21s-.01,0,0,.01c0,0,.01,0,0-.01m.03-.44c.03-.06-.16,.02-.2,0,.04,.07,.13,0,.2,0m-.18,.4c-.1-.04-.25-.12-.31,.02,.23-.1,.06,.07,.17,.06,.06,.01,.1-.02,.13-.07m-.08,.36c.07-.25-.43,0-.22-.01,.05,.05,.17,.01,.22,.01m-.17-13.62c.03,.06,.08,.09,.1,.02-.01-.05-.09-.07-.1-.02m.28-.07s.03,.04,.05,0c-.02-.02-.04-.03-.05,0m.08-.16s0,.01,0,.02c.01,0,0-.01,0-.02m-.02-.35c-.01,.07,.1,0,.02-.02,0,0-.02,0-.02,.02m.07,13.08s.04,.02,.06,0c-.02-.02-.03-.01-.06,0m-.56,.42s0-.02-.01-.02c0,.01,0,.02,.01,.02m0-13.56h0s0,0,0,0m-.02,.51h0s0,0,0,0h0Zm-.07,12.73s-.01,0-.02,0c0,.01,0,0,.02,0m-.12,.31s-.04-.02-.05,0c.02,.01,.04,.01,.05,0m-.02,.43s0,0,0,0h0Zm-.09-.18s-.02,.02,0,0c0,0,0,0,0,0m-.15-.17s0,0-.01,0c0,.01,0,0,.01,0m-.02,.56s-.02,0-.02,0c0,0,.02,0,.02,0m-.07-.3s.08-.05,.03-.07c-.02,.02-.08,.05-.03,.07m-.1,.15c-.11-.08-.1,.17-.02,.17,.09,0,.1-.15,.02-.17m-.13-13.73s0,0,0,0h0Zm-.05,.06s-.05-.01-.08,0c.03,.02,.04,.01,.08,0m-.02,12.73s0,0-.01,0c0,0,0,0,.01,0m-.04,.38s0,0,0,0c-.01-.02-.03,0,0,0m0,.73c-.03-.06-.24-.04-.31-.05-.21,.09,.35,.25,.31,.05m-.43-.09s-.02,0,0,.01c0,0,0,0,0-.01m-.06-13.51s-.02-.02-.04,0c.01,.02,.02,.01,.04,0m-.03,13.34s-.02,0-.03,.02c0,0,.02-.01,.03-.02m-.01,.12c0-.1-.11-.19-.17-.08-.02,.07,.11,.07,.17,.08m0,.17c.02-.11-.28-.07-.17-.02,.07,0,.1,.04,.16,.08,0-.02,.01-.04,0-.06m-.21,.08s-.04-.02-.06,0c.02,.02,.03,.01,.06,0m-.06-.48s0,0,.01,0c.01-.01-.02-.01-.01,0m.45-.58s.01,0,0-.01c-.01,0,0,0,0,.01m.18,.59s.03,.01,0,0c0,0,0,0,0,0m.11-.44s0,0,0,0h0Zm.26-.02h0s0,0,0,0m.13,.05s.03,0,0,0c0,0,0,0,0,0m-1.2,.81s-.01,0-.02,0c0,.01,.01,0,.02,0m-.02-13.76s0,0,0,.01h0Zm-.01,13.38s0,0,0,0h0Zm-.02-.16s-.03,.05-.03,.07c.01-.02,.02-.04,.03-.07m-.04,.07c-.12-.04-.17-.06-.21,.07-.03,.14,.17-.02,.21-.07m-.26-13.41s0,0,0,0c0,0,0,0,0,0m-.17,13.34s-.02,.02,0,0c0,0,0,0,0,0m-.17-13.15s0,0,0,0h0Zm-.17,13.54s-.02-.02-.03-.01c0,.02,.02,.03,.03,.01m-.02-14.03c-.08-.04-.19,.05-.1,.11,.03-.04,.06-.08,.1-.11m.01,13.83s0,0,0,0h0Zm-.22-.08h0s0,0,0,0h0Zm-.19,0c-.07-.03-.16-.03-.23,0,.08,.04,.16,.09,.23,0m-.04,.3s0,0,0,0c-.02,0,0,.02,0,0m-.14-.11s-.01,0-.01,0c0,0,.01,0,.01,0m-.04-.5s0,0,0,0h0Zm0-13.12s-.01-.03,0,0c0,0,0,0,0,0m.03,12.57s0,0,.01,0c0,0-.01,0-.01,0m.17,.43s.01,0,0-.01c0,0,0,0,0,.01m-.36,.51s0,0-.01,0c0,0,.01,0,.01,0m-.19-13.56s0,0,0-.01c-.01,0,0,.02,0,.01m-.06,13.77s0,0,0-.01c0,0,0,.01,0,.01h.01Zm-.01-.79h0s0,0,0,0m-.13,.72s0,0-.01,0c0,0,0,.02,.01,0m-.15-13.44c-.08,0-.11,.08-.01,.11,.04-.04,.08-.08,.01-.11m0,13.15s-.02-.01-.02,0c0,0,.02,.01,.02,0m-.24-13.36c-.06-.11-.2,.06-.25-.03-.03-.11-.16-.03-.1,.05,.03,.2,.09,0,.15,.13,.09,.08,.06-.14,.17-.11,.01,0,.03-.04,.03-.05m-.16,12.71s0,0-.01,0h.01m-.1,.36s0-.01-.01,0c0,0,0,.02,.01,0m-.17,.65s0,0,0,0h0Zm-.25-14.09s-.01,0-.01,0c0,0,.01,0,.01,0m-.23,.06c-.01-.06-.06-.02-.02,.03,.01-.02,.03-.02,.02-.03m-.07,.1s0,0,0,0h0Zm-.07-.12s-.04,0-.05,.03c.02,.05,.03,0,.05-.03m-.26,.14s0-.05-.02-.08c-.02,.04-.02,.08,0,.11,0-.01,.02-.03,.02-.03m-.07,12.62s-.01,0,0,0c0,0,.01,0,0,0m-.49,.06s-.01,0,0,.01c.01,0,0,0,0-.01m-.31,.33c-.06,0-.03,.08-.03,.11,.01-.04,.02-.07,.03-.11m-.16,.93s-.04-.02-.06,.01c.02,.01,.03,0,.06-.01m.15-1.31h0s0,0,0,0M11.82,.32s0,0-.01,0c0,0,0,0,.01,0m-.09,13.27s-.02,0-.03,0c.01,.01,.03,.01,.03,0m-.52,.41s-.02-.01-.02,0c0,.02,.01,.01,.02,0m-.09,.54s-.02-.03-.04-.01c0,.03,0,.03,.04,.01m-.08-1.36s0,0,0,0h0Zm-.3,.68s-.02-.05-.03-.07c-.02,.04-.03,.13,.03,.07m-1.14,.6s0,0-.01,0c0,0,0,0,.01,0m-.24,.15h0s0,0,0,0m-.19-.17h0s0,0,0,0m0,.17s-.04-.02-.05,0c.01,.03,.02,.02,.05,0m-.05-1.43s.02-.02,0-.04c-.01,.02-.02,.03,0,.04m-.24,.71s-.01-.02-.02,0c0,0,.01,.02,.02,0m-.04-13.51s0,0-.01,0c0,0,0,0,.01,0m-.01,.5h0s0,0,0,0h0Zm-.07-.24s0,0-.01,0c0,0,0,0,.01,0m-.18-.26s-.02,0-.02,.01c.01,0,.01,0,.02-.01m-.13,13.53c-.06-.04-.18-.02-.19,.05,.07,.03,.13-.02,.19-.05m-.13-12.98s.1-.01,.11-.04c.02-.13-.14-.06-.11,.04m0-.14s.02,.02,.03,.02c0-.02,0-.04-.03-.02m-.07,12.44s-.01,0-.01,0c0,0,.01,0,.01,0m-.2-12.38h0s0,0,0,0m-.55,12.64c-.02-.1-.11-.04-.02,0,0,0,.03-.01,.02,0m-.08,.62s0,0,0,0h0Zm.06-13.77s0,.01,.01,0c0,0,0-.01-.01,0m-.21,.57s-.07-.12-.1-.04c.04,.03,.07,.1,.1,.04m-.07,13.21s-.04-.02-.06,0c.03,.02,.03,.01,.06,0m-.06-13.52s0,0,0,0c0,0,0,0,0,0m-.12,13.41s-.05-.02-.07,.01c.03,.02,.05,0,.07-.01m-.2,.13s-.02-.01-.02,0c0,.01,.02,0,.02,0m-.07-.62s0,0,0,0c0,0,0,.01,0,.02,0,0,0,0,0,0m-.02-.58c-.06-.05-.07-.04-.11,0,.03,.05,.06,.01,.11,0m-.13,1.09s0,0-.01,0c0,0,.01,0,.01,0m-.2,.14s-.04-.02-.06,0c.02,.02,.03,0,.06,0m-.04-13.91h0s0,0,0,0m-.88,13.97s-.02-.02-.03,0c0,.02,.01,.02,.03,0m-.36-.03s0,0,0-.01c0,0,0,.01,0,.01m-.06-1.02s-.03-.07-.07-.06c-.03,.05,.07,.14,.07,.06m0,.15h0s0,0,0,0m-.34,.7s0,0,0,0h0Zm-.49-.34h0s0,0,0,0m-.1-13.28s-.02-.03-.03,0c0,.02,.02,.03,.03,0m-.44,13.56h0s0,0,0,0h0Zm-.36-.04s-.04,0,0,0c0,0,0,0,0,0m-.5,.26s0,0-.01,0c0,0,.01,0,.01,0m-.15-.23s-.02,0-.02,0c.01,.01,.01,0,.02,0m-.05,.19s-.02,0,0,0c0,0,0,0,0,0m-.03-.25h-.01s0,0,.01,0m-.06,.07s0,0-.01,0c0,0,0,0,.01,0m-.04,.38s0-.02-.02-.02c0,.02,0,.02,.02,.02m-.22-1.2h0s0,0,0,0h0Zm-.05-8.32s0,0,0,0c0,0,0,0,0,0m0,.87s-.02-.01-.02,0c0,0,.02,.01,.02,0m-.09-.94s-.1,.03-.1,.06c.04,0,.07-.04,.1-.06m-.03,1.26s-.04,.05-.05,.07c.04,.02,.04-.04,.05-.07m-.07-2.61c-.02-.06-.13,.05-.07,.07,.07,.03,.08-.02,.07-.07m-.1,2.24c-.01-.06-.08-.02-.08,.02,.03,0,.06,0,.08-.02m-.06,.15s-.04-.08-.02-.13c-.2,.09,.03,.38,.02,.13m-.13,5.22s-.02-.02-.02,0c0,.02,0,.02,.02,0m-.02-8.3s.03-.02,.05-.03c-.1,.02-.22-.07-.3-.02-.1,.08-.37-.11-.21-.2-.07,0-.26,.06-.2,.16,.05,.07-.04,.27-.13,.13-.15-.2,.07,.29,.14,.34,.05-.39,.49-.14,.65-.38m-.27,.39s-.05-.06-.06-.02c.01,.03,.02,.04,.06,.02m-.09,1.84s-.03-.05-.05-.02c.01,.03,.01,.05,.05,.02m-.22-.69s-.02,0-.02,0c.01,.01,.02,0,.02,0m-.23-1.3s-.03-.04-.05-.02c.01,.02,.02,.04,.05,.02m-.04,.14s-.01-.02-.02,0c0,0,.01,.01,.02,0m.02-.91c.14,.04,.26,0,.39-.06-.11-.07-.29-.01-.39,.06m.66-.98s.02,.01,.04,.02c0-.03-.02-.02-.04-.02m.31,1.56c.03,.09,.05,.03,.09-.01-.02-.04-.06,0-.09,.01m.03-.59s.04,.02,.07,0c-.04-.03-.05-.04-.07,0m.07-.86s.01,0,.01,0c0,0-.01,0-.01,0m.07,1.91s0,.02,0,.02c0,0,0-.01,0-.02M.69,2.1c-.06-.03-.1,0-.1,.09,.03-.03,.08-.05,.1-.09M.29,.34s-.01,0-.01,0c0,0,.01,0,.01,0m75.37,.01s.01,.02,.02,0c0-.02-.01-.02-.02,0m2.52,1.76s.02-.01,0,0c0,0,0,0,0,0m.04,.29s.03,0,.04,0c-.01,0-.03,0-.04,0m.11-1.6s0,0,.01,0c0,0,0,0-.01,0m.07,1.13s.01,0,.02,0c0-.01,0,0-.02,0m.25-.14s.01,0,0-.01c-.01,0-.01,0,0,.01m.05,.29s.05,.03,.08,.03c0-.03-.06-.04-.08-.03m.08-.07s.02,.01,.02,0c0,0-.02-.01-.02,0m.11-.08c.07-.02,.05,.08,.11,.07,.07-.11-.07-.17-.11-.07m1.44,3.55s.07,.04,.11,.04c-.04-.01-.08-.03-.11-.04m.34,.17s.02,0,.02,0c0,0-.03,0-.02,0m.18,.07c.04,.05,.2,.11,.24,.05,.02-.08-.28-.2-.24-.05m.24,.17s-.02,0-.03,.01c.02,0,.02,0,.03-.01m.06-.55h0s0,0,0,0h0Zm.21-.15c.07,.02,.05-.08,.06-.12-.03,.04-.06,.07-.06,.12m.31,4.54c-.3,.34-.58-.06-.82,.13-.08,.42-.54,.53-.41,.63,.07,.05,.27,.12,.09,.18,.12,.09,.08-.16,.17-.04,.03,.23,.77,.74,.53,.84,0,.11-.38,.09-.49,.19,0-.09-.34-.05-.18,.02,.17,0-.02,.22-.08,.14-.05-.13-.11,.1-.19,0-.03-.07-.11,.04-.03,.06,.07,.02,.28,.06,.15,.15-.1,.04,0,.18-.14,.19-.05,0-.09,.12-.07,.13,.31-.07,.26,.1,.25,.31-.11,.21-.48,.27-.69,.15-1.85,.01-.54,.78-1.5,1.35-.1,.11-.08-.11-.15-.14-.2-.11-.21,.07-.32-.03-.07-.06-.16,.05-.18-.05-.35-.32-.25,.33,.07,.15,.32,.27-.3,.1-.3,.3-.07,.08-.61,.12-.48-.14-.74,.16-.75-.24-1.52,0-.1-.11-.26-.03-.38-.02-.08-.06-.12-.03-.17,.04-.12,.12-.1-.16-.33-.09,.12,.02,.1,.2-.03,.12-.84-.31-2.14-.08-3.09-.13-.26,.34-.26-.1-.37,.05-.09,.17-.28,.1-.37,0-.4,.03-.62-.11-.94,.05-.38-.18-.94,.1-1.37-.04-.24-.03,.02,.32-.25,.26,.05-.34,.07-.22-.34-.21-.11,.06-.1,.15-.25,.09-.14-.06-.3,.21-.33,.1-.02-.08-.09,0-.24-.02,.77,.41-1.52,.14-1.81,.22l.05-.06c-7.5,.12-16.49,0-23.42,.06-.61,0-1.15,0-1.79,0-.11-.14-.6,.18-.64-.11-.04,.16-.66,.17-.55,.02-.2,.11-.17-.02-.31-.05,.06,.32-2.01,.06-2.36,.14-.03-.07,.06-.33-.08-.27-.07,.02-.29-.08-.23,.05-.52,.24-.18-.35-.43-.12-.07,.03-.43,.27-.31,.07,.01-.02,0-.07-.03-.04-.26,.41-.48-.09-.63,0,.51,.37,.38,.31-.22,.31,.06-.11,.41,0,.14-.18-.19,.09-.25,.23-.5,.18-.06-.07-.32,.07-.34-.04-.14,.07-.57,.07-.66,.01,.15-.04,.11-.37-.05-.32,.18,.52-.48,.31-.78,.35-.02-.12-.75,.12-.35-.09-.26-.02,.23-.3-.12-.23-.15,.18-.08-.05-.14-.12-.17-.06-.31-.13-.45-.24,.02,.14,.16,.26-.1,.26-.05,.1,.25,.11,.33,.04,.12-.1,.28,.18,.2,.25-.07,.06-.22,.01-.24,.12-.37,.06-.34-.15-.46-.05-.23,.03-1.35,.21-1.42-.1-.05,.11-.14,.23-.27,.12,0,.06-.27,.07-.26,0-.38,.07-1.18,.12-1.59-.02-.06-.06-.07,.02-.07,.07-.16,.03-.1-.18-.32-.06,0,.04-.15-.12-.14-.08,.16,.29-.61,.08-.84,.14-.04-.07,.11-.06,.06-.11-.11,0-.22,0-.25,.11-.3-.07-1.06,.17-1.08-.13-.07,.16-.55,.24-.49-.02,0-.04-.06-.03-.07,0,.04,.3-.4,.07-.53,.15-.37-.06-1.15,.13-1.31-.08,0,.12-.47,.12-.34,.01,.05-.06,.29-.19,.08-.2h0c-.44-.39-.88-.06-.93-.41-.04-.08-.04,.05-.05,.08-.14,.07,.06,.21,.17,.16,.11-.07,.19,.12,.32,.08,.16,0,.07,.15,.16,.19,.2,.11,.13,.2-.08,.16-.01-.04,.02-.09-.04-.12-.34,.29-1.56,.04-2.33,.12-.07-.19-.16,.02-.26,0-.04-.08-.07,.03-.15,0-.08-.22-.27,.1-.36-.1,0,.17-1.05,.13-1.23,.05-.16,.15-.58,0-.28-.22,.13-.1-.09-.18-.17-.22,.02,.11-.09,.15-.17,.07-.1-.07-.08,.13-.28,.09-.09,.04-.02,.15-.07,.22,.06,.12-.13,.16-.14,.04,0-.1,0-.1-.12-.12-.1,0-.08-.22-.27-.23-.07,.05,.28,.18,.07,.24-.12,.06-.15,.09-.26,.01-.04,.13-.14-.03-.23-.01-.07-.01-.09,.13-.12,.01-.04-.13-.14,.14-.33,.04-.1-.01-.24,.08-.23-.09,.09-.14-.16-.03-.07,.06-.06,.12-.27-.11-.38-.11-.03,.07,.12,.25-.09,.18-.1-.08-.09,.11-.18,.08-.15-.17-.56,0-.75,0-.03-.04,0-.14-.12-.08-.21-.1-.31,.21-.33-.2-.06,0-.1,.03-.1,.09-.04,.23-.46,.26-.53,.03-.06,.45-.39-.12-.58,.02,0,.14,.16-.05,.16,.08-.28,.14-.89,.03-1.25,0-.14,.02-1.51,.2-1.26-.05-.26,.03-.14-.41-.36-.34-.37,.15-.34-.26-.54-.05-.27,.22-.74,.03-1.03,.06-.07,.12-.22,.01-.33,0-.1,.1-.22-.03-.33,.04-.12,.03-.15-.14-.28-.04-.2-.05-.36,.16-.51,.02-.05-.11-.15,.14-.51,.05-.1-.11-.19,.05-.29,0-.14-.1-.36,0-.52,.05-.61-.06-1.12,.14-1.76,.14C.51,12.24,1.77,9.02,.97,6.33c.06-.75-.34-1.44-.15-2.14,.16-.13,.23-.35,.12-.54-.25-.44-.06-.96-.35-1.39,.1-.02,0-.04,0-.06-.32-.15,.22-.47,.21-.68C.75,.17,.09,.36,.08,.36c-.04,0-.11-.21-.07-.21C20.66-.29,41.73,.42,62.12,.05c-.17,0,.13,.1,.1,0,1.23,.12,2.98-.06,3.99,.28,.26-.2,1.05-.2,1.29-.01-.11-.18,.16-.09,.28-.11-.05,.02-.06,.17-.02,.14-.02-.21,.59-.24,.37,.11,.16-.12-.04-.3,.28-.25,.77,0,1.71,0,2.49,0-.05,.06-.1,.12-.05,.19-.07-.31,.97-.24,.96-.09,.13-.18,.49-.17,.47,.08-.06-.36,.98-.12,1.27-.19-.07,.16-.29,.02-.24,.19,.07,.06,.15-.07,.23-.04-.14,.19-.02,.09,.02,.26,.08,.08,.05-.44,.18-.4-.03,.05-.04,.33,.08,.17,0-.06,.02-.12,.1-.13-.04-.01-.07-.02-.11-.04,.55,.06,.95-.23,1.01,.4,.11-.22,.18,.03,.31,.05,.09-.56-.12-.45,.61-.45,.22,.45-.19,.13-.11,.35-.03,.12,.09,.08,.16,.15,.09,.09,.18,0,.22-.08,.07-.15,.13,.06,.19,0,.07-.08,.07-.18,0-.26-.02-.14-.28,.05-.18,.12,.03,.03,0,.05-.04,.04-.34-.09,.12-.21-.07-.33,.15,.04,.81-.1,.66,.09-.15,.06,.15,.08,0,.18,.11,0,.03-.16,.14-.16,.08-.01,.08-.02,.04-.1,.15-.03,.18,.03,.27,.09,.27-.35,.79,.43,.26,.09,0,.14,.1,.2-.1,.21,2.26,.03,.42,.33,1.97,1.27-.06,.26-.21,.54-.55,.39-.1-.05-.03,.14-.15,.05-.05-.14,.25-.35-.08-.28,.16,.2-.34,.35,.05,.43,.02,.12,.09-.05,.15-.04,.07,.03,.22-.15,.18,0-.1,.07-.05,.4-.25,.27-.05-.14-.19-.02-.25-.1-.08-.12-.14,.05-.11,.12,0,.07,.07,0,.1-.01,.24,.03-.09,.18-.13,.24,.13,0,.05,.16,.18,.16,.2,.12-.06,.09-.03,.14,.19,0,.24,.2,.4,.28h0s0,0,0,0c.22,.22-.21,.02,.24,.24,0,0,0,0,0,0,.23,.09,.02-.11,.01-.21,.22-.01,.39-.19,.59-.22,.14,.01,.13,0,.16-.11,.03-.08-.09-.02-.11-.08,.01-.19,.5,.05,.41,.17,.02,.17-.42,.27-.26,.36,.04,.25,.28,.17,.18,.25-.18,.03-.07,.23-.22,.28,.24-.06,.25,.38,.02,.12-.15-.07,.03,.17-.11,.21,.05,.08,.18,.06,.2,.15,.04,.08,.24,.02,.19,.15-.03,.09-.17-.03-.26,.07-.02,.18,.17-.02,.24,.07-.1,.27,.2,.33,.17,.17-.03,.08-.09,.01,0,0-.04-.06,.04-.13,.1-.08,0,.11,.11,.09,.15,.17,.12,.19,.1-.15,.28,.05,.05,.02,.06,.06,0,.08-.14,.07,.02,.24,.11,.11,.08-.06,.19,.08,.24,.14,.04-.12,.21-.09,.32-.13-.1-.09-.31,.04-.32-.15-.01-.14,.04-.15,.17-.1,.09-.06,.09-.27,.24-.14,.3-.59-.07,1.41-.39,.99-.18,.05-.06,.09-.09,.21-.05,.13-.16,0-.18-.08-.01,.13-.16,.1-.11-.02,.05-.11,.14-.26,.07-.37-.32,.14-.07-.13-.27-.29,.03,.21-.44,.19-.21-.03-.12-.04-.17,.24-.02,.24,.24-.01,.2,0,.27,.17,.14,.01,.14,.26,0,.26-.1,.05-.01,.26-.04,.37,0,.05,0,.09-.07,.12-.11,.03-.07,.23,.04,.19h0s0,0,0,0h0c.12,0,.07-.14,.11-.2,.14-.12,.45-.4,.31-.04-.29-.07-.05,.27-.16,.31-.12-.03-.16,.04-.09,.13,.06-.31,.7,.18,.42,.22-.14,.03-.18-.39-.3-.06,.05,.18,.33,.19,.15,.45,.67-.54,.16,.57-.17,.27,.04,.14,.26,.25,.02,.4-.1,0-.06,.04-.04,.07,.19,.17-.1,.1-.07,.24,.04,.07,.12,0,.17-.02,.13,.02,.3,.23,.35,.37,.06,.16,.06-.13,.4,.2,.02,.11,.33,.42,.14,.58M52.63,.36s0,0,0,0h0Z"/></g></g></svg>